<svg xmlns="http://www.w3.org/2000/svg" version="1.1" xmlns:xlink="http://www.w3.org/1999/xlink" xmlns:svgjs="http://svgjs.dev/svgjs" viewBox="0 0 800 800"><defs><linearGradient x1="50%" y1="0%" x2="50%" y2="100%" id="ccchaos-grad"><stop stop-color="hsl(206, 75%, 49%)" stop-opacity="1" offset="0%"></stop><stop stop-color="hsl(331, 90%, 56%)" stop-opacity="1" offset="100%"></stop></linearGradient></defs><g stroke-width="2" stroke="url(#ccchaos-grad)" fill="none" stroke-linecap="round"><path d="M376.46 100.58C385.77 101.22 395.06 102.84 404.32 105.34 413.59 108.22 422.85 111.84 432.09 116.11 441.37 120.52 450.67 125.41 459.98 130.66 469.39 135.81 478.86 141.19 488.39 146.71 498.06 151.97 507.84 157.28 517.74 162.62 527.8 167.6 538.01 172.6 548.33 177.61 558.82 182.27 569.42 186.99 580.08 191.79 590.84 196.3 601.6 200.97 612.26 205.82 622.88 210.49 633.27 215.41 643.3 220.62 653.06 225.74 662.28 231.2 670.78 237 678.76 242.79 685.82 248.97 691.81 255.51 697.04 262.08 701.04 269.03 703.71 276.35 705.49 283.7 705.91 291.41 704.95 299.44 703.2 307.5 700.19 315.87 696.03 324.52 691.43 333.19 685.97 342.12 679.85 351.28 673.83 360.44 667.56 369.83 661.24 379.41 655.64 389.01 650.49 398.58 645.93 408.11 642.44 417.66 639.64 427.19 637.55 436.7 636.56 446.25 636.16 455.81 636.26 465.38 637.21 475.04 638.41 484.74 639.7 494.5 641.46 504.37 643.02 514.33 644.24 524.36 645.52 534.52 646.22 544.77 646.22 555.06 645.99 565.46 644.92 575.86 642.98 586.2 640.64 596.53 637.38 606.7 633.23 616.59 628.64 626.28 623.21 635.54 616.99 644.21 610.39 652.45 603.09 659.91 595.19 666.45 587.01 672.32 578.33 677.12 569.22 680.74 559.95 683.58 550.35 685.21 540.5 685.6 530.56 685.33 520.44 683.96 510.21 681.6 499.94 678.94 489.6 675.6 479.23 671.79 468.86 668.24 458.48 664.62 448.12 661.14 437.77 658.52 427.45 656.39 417.17 654.89 406.89 654.6 396.88 655.02 387.16 656.1 377.41 658.22 367.93 660.74 358.7 663.48 349.43 666.77 340.38 669.89 331.57 672.65 322.69 675.38 314.01 677.39 305.53 678.52 296.96 679.18 288.56 678.74 280.34 677.18 272 674.92 263.82 671.49 255.79 666.94 247.64 661.7 239.65 655.45 231.81 648.29 223.86 640.6 216.08 632.19 208.49 623.17 200.82 613.85 193.36 604.09 186.15 594.04 178.91 583.86 171.95 573.51 165.33 563.06 158.74 552.63 152.52 542.18 146.73 531.76 141.04 521.42 135.82 511.13 131.12 500.91 126.58 490.79 122.59 480.73 119.19 470.74 116 460.83 113.42 450.96 111.47 441.15 109.74 431.38 108.65 421.63 108.21 411.93 107.97 402.23 108.36 392.56 109.4 382.92 110.57 373.28 112.32 363.9 114.59 354.79 116.91 345.68 119.69 336.85 122.9 328.31 126.06 319.78 129.59 311.56 133.45 303.67 137.19 295.78 141.22 288.24 145.5 281.05 149.6 273.86 153.93 267.03 158.46 260.56 162.79 254.07 167.33 247.91 172.05 242.1 176.58 236.21 181.31 230.62 186.24 225.3 191 219.84 196 214.58 201.23 209.52 206.33 204.22 211.7 199.04 217.35 193.95 222.91 188.56 228.77 183.2 234.93 177.87 241.06 172.19 247.5 166.53 254.25 160.91 260.99 154.98 268.05 149.14 275.41 143.43 282.78 137.55 290.44 131.92 298.38 126.63 306.33 121.38 314.55 116.62 323.01 112.46 331.48 108.57 340.18 105.44 349.1 103.15 358.01 101.33 367.13 100.45 376.45 100.58" stroke-dasharray="2 7" transform="rotate(0, 400, 400)" opacity="0.32"></path><path d="M378.73 111.24C387.73 111.87 396.76 113.42 405.78 115.82 414.82 118.59 423.88 122.08 432.96 126.2 442.08 130.47 451.25 135.22 460.46 140.34 469.75 145.4 479.12 150.71 488.57 156.17 498.13 161.41 507.81 166.73 517.58 172.09 527.48 177.13 537.5 182.2 547.61 187.28 557.83 192.03 568.11 196.83 578.39 201.69 588.73 206.27 598.99 210.98 609.09 215.83 619.1 220.48 628.82 225.35 638.12 230.46 647.13 235.45 655.56 240.74 663.27 246.34 670.45 251.88 676.74 257.77 682 264 686.54 270.23 689.92 276.81 692.08 283.74 693.43 290.68 693.53 297.97 692.37 305.57 690.52 313.19 687.54 321.13 683.51 329.35 679.11 337.59 673.94 346.1 668.16 354.86 662.5 363.63 656.59 372.65 650.63 381.9 645.31 391.15 640.38 400.43 635.95 409.71 632.49 419.01 629.64 428.33 627.41 437.66 626.17 447.03 625.47 456.44 625.23 465.89 625.78 475.4 626.59 484.98 627.5 494.61 628.89 504.33 630.14 514.13 631.12 523.98 632.22 533.92 632.83 543.91 632.85 553.9 632.73 563.93 631.87 573.92 630.23 583.78 628.28 593.57 625.5 603.13 621.91 612.35 617.94 621.34 613.18 629.84 607.68 637.72 601.83 645.15 595.3 651.81 588.18 657.56 580.78 662.68 572.87 666.78 564.52 669.78 555.99 672.08 547.11 673.27 537.93 673.35 528.66 672.86 519.17 671.39 509.51 669.05 499.81 666.49 490 663.35 480.11 659.79 470.21 656.51 460.26 653.19 450.3 649.99 440.34 647.6 430.37 645.64 420.41 644.23 410.45 643.93 400.73 644.26 391.26 645.18 381.77 647.06 372.5 649.29 363.46 651.74 354.39 654.73 345.52 657.59 336.85 660.14 328.12 662.73 319.58 664.7 311.21 665.9 302.76 666.73 294.47 666.59 286.34 665.44 278.11 663.68 270.03 660.85 262.1 656.99 254.06 652.49 246.17 647.02 238.44 640.68 230.62 633.82 222.97 626.23 215.52 618.01 208 609.45 200.7 600.42 193.65 591.04 186.59 581.49 179.82 571.7 173.37 561.76 166.98 551.78 160.96 541.73 155.35 531.66 149.87 521.63 144.84 511.62 140.31 501.66 135.96 491.76 132.14 481.92 128.89 472.14 125.85 462.42 123.41 452.76 121.58 443.17 119.97 433.61 118.98 424.1 118.63 414.66 118.47 405.23 118.93 395.84 120.01 386.53 121.23 377.21 123.01 368.18 125.29 359.43 127.62 350.69 130.41 342.23 133.6 334.08 136.75 325.92 140.26 318.07 144.08 310.55 147.8 303.03 151.78 295.83 156.01 288.97 160.08 282.09 164.36 275.54 168.84 269.32 173.12 263.06 177.6 257.09 182.25 251.43 186.71 245.67 191.37 240.16 196.21 234.89 200.87 229.45 205.76 224.19 210.86 219.08 215.82 213.74 221.03 208.48 226.48 203.31 231.85 197.84 237.49 192.4 243.41 186.99 249.27 181.27 255.43 175.58 261.88 169.94 268.3 164.04 275.02 158.24 282.03 152.61 289.04 146.84 296.33 141.34 303.9 136.2 311.46 131.12 319.3 126.53 327.39 122.54 335.47 118.82 343.8 115.83 352.36 113.66 360.92 111.93 369.71 111.1 378.72 111.24" stroke-dasharray="10 12" transform="rotate(4.04, 400, 400)" opacity="0.66"></path><path d="M381.76 121.9C390.47 122.51 399.23 123.99 408.02 126.3 416.83 128.95 425.68 132.31 434.58 136.27 443.51 140.4 452.52 145 461.58 149.98 470.72 154.92 479.94 160.13 489.24 165.52 498.63 170.72 508.12 176.02 517.7 181.38 527.37 186.46 537.13 191.58 546.92 196.72 556.8 201.55 566.68 206.43 576.52 211.36 586.35 216.01 596.05 220.77 605.54 225.64 614.89 230.31 623.91 235.16 632.48 240.21 640.73 245.13 648.38 250.29 655.31 255.73 661.73 261.09 667.28 266.76 671.85 272.73 675.75 278.68 678.58 284.95 680.26 291.55 681.24 298.14 681.06 305.06 679.74 312.29 677.83 319.52 674.89 327.07 671.01 334.91 666.83 342.74 661.95 350.87 656.51 359.27 651.19 367.66 645.64 376.33 640.01 385.26 634.98 394.18 630.26 403.17 625.98 412.19 622.57 421.22 619.67 430.3 617.32 439.42 615.88 448.58 614.91 457.79 614.35 467.05 614.54 476.37 614.97 485.75 615.52 495.18 616.54 504.68 617.47 514.23 618.19 523.81 619.08 533.44 619.56 543.08 619.55 552.67 619.46 562.25 618.74 571.73 617.34 581.03 615.7 590.22 613.31 599.12 610.19 607.63 606.76 615.88 602.59 623.6 597.72 630.69 592.56 637.34 586.74 643.22 580.33 648.22 573.69 652.64 566.51 656.1 558.88 658.54 551.09 660.37 542.91 661.18 534.41 660.99 525.8 660.33 516.94 658.82 507.88 656.52 498.77 654.09 489.5 651.14 480.11 647.84 470.71 644.83 461.22 641.79 451.68 638.87 442.13 636.68 432.54 634.89 422.93 633.57 413.31 633.27 403.89 633.51 394.69 634.28 385.46 635.92 376.43 637.89 367.6 640.06 358.74 642.75 350.05 645.35 341.54 647.69 332.99 650.12 324.59 652.01 316.35 653.24 308.04 654.19 299.88 654.29 291.86 653.48 283.77 652.16 275.8 649.86 267.99 646.61 260.09 642.8 252.33 638.07 244.73 632.5 237.07 626.45 229.57 619.66 222.27 612.23 214.94 604.46 207.82 596.19 200.95 587.52 194.1 578.65 187.52 569.48 181.28 560.12 175.11 550.68 169.3 541.12 163.9 531.49 158.62 521.86 153.8 512.21 149.46 502.58 145.3 492.99 141.67 483.43 138.59 473.93 135.71 464.47 133.41 455.06 131.71 445.73 130.22 436.42 129.33 427.18 129.06 418.02 128.98 408.87 129.5 399.78 130.62 390.79 131.88 381.79 133.68 373.09 135.97 364.68 138.3 356.27 141.08 348.15 144.25 340.34 147.38 332.53 150.86 325.01 154.64 317.81 158.32 310.6 162.27 303.69 166.45 297.1 170.47 290.48 174.71 284.15 179.13 278.13 183.37 272.03 187.79 266.21 192.39 260.65 196.79 254.97 201.38 249.51 206.14 244.25 210.73 238.81 215.51 233.52 220.5 228.35 225.34 222.95 230.41 217.63 235.71 212.37 240.91 206.84 246.36 201.33 252.06 195.87 257.7 190.12 263.61 184.42 269.79 178.79 275.93 172.95 282.36 167.23 289.06 161.69 295.74 156.06 302.7 150.71 309.93 145.73 317.15 140.83 324.64 136.42 332.38 132.6 340.11 129.06 348.1 126.21 356.34 124.16 364.56 122.53 373.04 121.75 381.75 121.9" stroke-dasharray="8 6" transform="rotate(8.08, 400, 400)" opacity="0.74"></path><path d="M385.45 132.56C393.87 133.14 402.37 134.57 410.91 136.77 419.48 139.31 428.11 142.52 436.8 146.32 445.52 150.29 454.33 154.73 463.2 159.56 472.13 164.38 481.14 169.47 490.23 174.76 499.39 179.89 508.64 185.16 517.93 190.5 527.3 195.59 536.72 200.74 546.14 205.92 555.59 210.82 565.01 215.77 574.33 220.76 583.6 225.49 592.7 230.3 601.54 235.21 610.21 239.92 618.51 244.77 626.33 249.8 633.83 254.67 640.72 259.76 646.9 265.08 652.59 270.31 657.44 275.81 661.37 281.58 664.69 287.31 667.02 293.33 668.28 299.65 668.93 305.94 668.52 312.55 667.08 319.45 665.13 326.35 662.26 333.55 658.54 341.03 654.58 348.52 649.98 356.29 644.88 364.34 639.9 372.39 634.7 380.72 629.4 389.32 624.64 397.93 620.14 406.61 616.01 415.35 612.65 424.1 609.74 432.92 607.3 441.8 605.67 450.7 604.46 459.67 603.62 468.69 603.47 477.74 603.54 486.86 603.75 496.02 604.41 505.21 605.02 514.43 605.47 523.65 606.13 532.89 606.45 542.09 606.36 551.19 606.25 560.26 605.6 569.16 604.35 577.84 602.94 586.37 600.87 594.57 598.14 602.35 595.16 609.84 591.5 616.8 587.2 623.11 582.64 629 577.46 634.14 571.72 638.44 565.76 642.21 559.28 645.09 552.34 647.03 545.24 648.45 537.74 648.95 529.9 648.55 521.96 647.77 513.73 646.23 505.27 644.02 496.75 641.72 488.04 638.98 479.17 635.94 470.28 633.2 461.27 630.43 452.17 627.76 443.06 625.78 433.87 624.14 424.62 622.91 415.37 622.6 406.28 622.77 397.35 623.39 388.42 624.83 379.65 626.54 371.04 628.44 362.41 630.84 353.93 633.17 345.6 635.29 337.24 637.55 329.01 639.34 320.92 640.56 312.78 641.58 304.77 641.85 296.89 641.32 288.95 640.37 281.13 638.54 273.46 635.84 265.72 632.65 258.12 628.6 250.69 623.75 243.2 618.46 235.89 612.45 228.77 605.8 221.64 598.82 214.73 591.32 208.07 583.38 201.44 575.22 195.09 566.74 189.07 558.01 183.13 549.17 177.55 540.15 172.38 531.04 167.33 521.89 162.72 512.68 158.59 503.45 154.64 494.24 151.19 485.03 148.28 475.87 145.57 466.73 143.42 457.63 141.85 448.6 140.48 439.6 139.7 430.65 139.51 421.79 139.5 412.94 140.07 404.17 141.24 395.49 142.53 386.81 144.34 378.43 146.62 370.34 148.95 362.25 151.71 354.44 154.84 346.94 157.95 339.43 161.39 332.2 165.13 325.28 168.77 318.33 172.67 311.67 176.79 305.3 180.78 298.88 184.96 292.73 189.33 286.85 193.53 280.89 197.9 275.16 202.44 269.66 206.79 264.03 211.32 258.59 216.01 253.31 220.53 247.86 225.24 242.53 230.13 237.3 234.87 231.85 239.83 226.46 244.99 221.13 250.04 215.55 255.33 210 260.85 204.5 266.29 198.76 271.99 193.08 277.94 187.49 283.83 181.72 290 176.1 296.42 170.68 302.82 165.21 309.48 160.03 316.41 155.22 323.31 150.52 330.48 146.31 337.91 142.67 345.32 139.29 353 136.6 360.92 134.66 368.84 133.13 377.01 132.41 385.44 132.56" stroke-dasharray="11 6" transform="rotate(12.12, 400, 400)" opacity="0.58"></path><path d="M389.66 143.22C397.8 143.78 406.03 145.14 414.32 147.24 422.62 149.65 431.01 152.72 439.46 156.35 447.94 160.16 456.51 164.44 465.14 169.09 473.82 173.76 482.58 178.72 491.39 183.89 500.26 188.94 509.19 194.14 518.14 199.44 527.14 204.52 536.15 209.67 545.12 214.87 554.1 219.82 562.99 224.82 571.74 229.86 580.42 234.65 588.88 239.53 597.04 244.48 605.01 249.23 612.58 254.11 619.67 259.13 626.43 263.99 632.58 269.04 638.04 274.28 643.04 279.42 647.25 284.79 650.59 290.41 653.39 295.96 655.25 301.78 656.16 307.87 656.52 313.93 655.93 320.27 654.4 326.89 652.44 333.49 649.66 340.38 646.11 347.56 642.37 354.72 638.06 362.17 633.28 369.9 628.63 377.62 623.76 385.62 618.79 393.9 614.3 402.19 610.02 410.56 606.04 419 602.75 427.45 599.84 435.98 597.33 444.57 595.55 453.18 594.13 461.85 593.04 470.57 592.58 479.31 592.33 488.1 592.2 496.9 592.52 505.72 592.82 514.54 592.99 523.32 593.4 532.09 593.53 540.78 593.32 549.33 593.15 557.81 592.51 566.1 591.37 574.11 590.11 581.95 588.28 589.43 585.85 596.46 583.24 603.21 580.02 609.41 576.2 614.97 572.17 620.13 567.56 624.58 562.41 628.24 557.08 631.43 551.24 633.79 544.94 635.29 538.5 636.35 531.66 636.59 524.45 636.04 517.15 635.18 509.54 633.66 501.67 631.54 493.74 629.4 485.59 626.88 477.25 624.09 468.89 621.6 460.37 619.1 451.72 616.68 443.06 614.89 434.29 613.39 425.43 612.25 416.56 611.94 407.82 612.04 399.2 612.53 390.58 613.76 382.09 615.24 373.73 616.88 365.36 619.01 357.1 621.08 348.98 622.97 340.83 625.03 332.8 626.7 324.89 627.88 316.94 628.93 309.1 629.32 301.4 629.01 293.64 628.37 286 626.93 278.5 624.71 270.96 622.07 263.55 618.63 256.3 614.45 249.03 609.87 241.93 604.6 235.03 598.71 228.12 592.49 221.44 585.75 215.02 578.55 208.64 571.13 202.54 563.35 196.76 555.29 191.07 547.1 185.74 538.69 180.8 530.14 176 521.53 171.62 512.82 167.7 504.07 163.96 495.3 160.71 486.51 157.98 477.74 155.45 468.98 153.45 460.24 152.01 451.56 150.76 442.9 150.08 434.28 149.97 425.75 150.04 417.22 150.66 408.77 151.85 400.41 153.17 392.05 154.98 383.98 157.25 376.19 159.57 368.4 162.29 360.89 165.39 353.66 168.46 346.42 171.85 339.45 175.53 332.76 179.13 326.04 182.97 319.58 187.04 313.39 190.98 307.14 195.11 301.12 199.43 295.35 203.58 289.48 207.9 283.82 212.38 278.35 216.69 272.76 221.16 267.31 225.79 262.01 230.25 256.53 234.89 251.16 239.69 245.87 244.35 240.37 249.21 234.94 254.25 229.56 259.18 223.95 264.33 218.39 269.69 212.89 274.96 207.18 280.48 201.55 286.22 196.03 291.91 190.37 297.84 184.87 304.02 179.6 310.16 174.3 316.56 169.3 323.22 164.69 329.84 160.19 336.72 156.18 343.86 152.72 350.98 149.53 358.36 146.99 365.99 145.17 373.62 143.73 381.5 143.06 389.65 143.22" stroke-dasharray="3 9" transform="rotate(16.16, 400, 400)" opacity="0.93"></path><path d="M394.24 153.88C402.1 154.42 410.05 155.71 418.07 157.7 426.1 160 434.22 162.91 442.4 166.37 450.6 170.01 458.89 174.11 467.23 178.58 475.62 183.09 484.06 187.89 492.54 192.93 501.06 197.87 509.61 202.98 518.16 208.2 526.73 213.25 535.28 218.38 543.75 223.57 552.19 228.54 560.52 233.57 568.66 238.64 576.71 243.49 584.51 248.42 591.98 253.41 599.25 258.21 606.1 263.11 612.46 268.13 618.51 273 623.96 278.03 628.74 283.22 633.1 288.31 636.72 293.59 639.52 299.08 641.84 304.51 643.31 310.17 643.89 316.07 644.01 321.93 643.28 328.04 641.7 334.42 639.76 340.77 637.08 347.39 633.71 354.28 630.2 361.15 626.17 368.3 621.71 375.72 617.38 383.13 612.84 390.82 608.18 398.78 603.95 406.74 599.89 414.79 596.07 422.91 592.87 431.04 589.97 439.25 587.41 447.5 585.51 455.78 583.91 464.1 582.6 472.46 581.86 480.83 581.31 489.23 580.88 497.61 580.88 505.99 580.86 514.35 580.76 522.62 580.91 530.86 580.84 538.99 580.48 546.95 580.2 554.8 579.53 562.43 578.43 569.74 577.27 576.88 575.6 583.63 573.42 589.93 569.66 598.68 559.18 612.66 552.51 617.64 545.1 621.26 527.82 624.13 518.1 623.48 511.41 622.58 504.4 621.1 497.11 619.11 489.76 617.13 482.16 614.82 474.35 612.29 466.51 610.05 458.49 607.8 450.31 605.62 442.12 604.01 433.78 602.65 425.32 601.59 416.86 601.28 408.48 601.32 400.2 601.69 391.92 602.73 383.73 603.99 375.65 605.38 367.56 607.24 359.56 609.05 351.67 610.72 343.76 612.58 335.96 614.11 328.26 615.21 320.53 616.25 312.91 616.72 305.4 616.57 297.86 616.17 290.43 615.06 283.14 613.25 275.82 611.08 268.64 608.2 261.61 604.62 254.58 600.69 247.72 596.11 241.05 590.93 234.41 585.45 227.99 579.45 221.82 572.99 215.71 566.3 209.87 559.24 204.36 551.86 198.94 544.34 193.87 536.58 189.18 528.64 184.63 520.62 180.5 512.46 176.81 504.23 173.29 495.96 170.25 487.65 167.7 479.32 165.34 470.99 163.5 462.66 162.19 454.36 161.07 446.07 160.48 437.82 160.45 429.64 160.58 421.46 161.25 413.34 162.46 405.31 163.79 397.28 165.6 389.51 167.85 382.02 170.15 374.52 172.84 367.28 175.88 360.3 178.9 353.31 182.24 346.57 185.86 340.08 189.4 333.56 193.18 327.27 197.19 321.22 201.07 315.11 205.15 309.2 209.4 303.5 213.5 297.71 217.78 292.1 222.2 286.64 226.46 281.06 230.88 275.61 235.44 270.28 239.85 264.78 244.42 259.37 249.15 254.04 253.74 248.52 258.51 243.06 263.45 237.65 268.28 232.05 273.3 226.5 278.52 221.03 283.66 215.38 289.01 209.83 294.57 204.41 300.07 198.89 305.81 193.55 311.77 188.44 317.69 183.33 323.85 178.54 330.26 174.13 336.63 169.85 343.25 166.04 350.12 162.78 356.96 159.77 364.07 157.38 371.42 155.68 378.76 154.33 386.36 153.72 394.23 153.88" stroke-dasharray="9 6" transform="rotate(20.200000000000003, 400, 400)" opacity="0.66"></path><path d="M399.02 164.54C406.6 165.06 414.26 166.28 421.99 168.17 429.73 170.34 437.55 173.1 445.43 176.38 453.33 179.84 461.3 183.75 469.31 188.03 477.35 192.37 485.43 197 493.53 201.87 501.65 206.68 509.77 211.67 517.86 216.79 525.95 221.78 533.98 226.86 541.91 232.01 549.79 236.98 557.51 242.01 565.03 247.09 572.43 251.98 579.55 256.93 586.33 261.94 592.91 266.78 599.06 271.71 604.72 276.74 610.08 281.63 614.87 286.64 619.02 291.8 624.33 299.46 630.64 315.56 631.52 324.07 631.44 329.76 630.6 335.69 628.99 341.85 627.1 347.98 624.53 354.36 621.36 360.99 618.07 367.6 614.31 374.47 610.16 381.59 606.15 388.7 601.92 396.08 597.57 403.71 593.6 411.34 589.75 419.06 586.1 426.84 582.99 434.63 580.13 442.48 577.54 450.37 575.54 458.27 573.8 466.2 572.29 474.15 571.31 482.1 570.49 490.05 569.78 497.96 569.48 505.85 569.17 513.69 568.81 521.41 568.69 529.08 568.4 536.6 567.89 543.92 567.47 551.12 566.73 558.07 565.62 564.69 563.72 574.14 557.53 590.44 553.16 597.02 548.12 602.51 535.45 609.64 527.92 611.22 522.64 611.75 516.97 611.63 510.93 610.89 504.82 609.99 498.37 608.58 491.64 606.73 484.85 604.92 477.79 602.83 470.5 600.54 463.19 598.55 455.66 596.53 447.95 594.58 440.24 593.14 432.35 591.91 424.31 590.93 416.27 590.62 408.28 590.6 400.36 590.86 392.43 591.73 384.57 592.78 376.79 593.95 369 595.55 361.29 597.12 353.67 598.56 346.04 600.21 338.48 601.58 331.03 602.59 323.56 603.58 316.18 604.08 308.91 604.04 301.62 603.82 294.44 602.98 287.38 601.51 280.32 599.75 273.39 597.35 266.62 594.31 259.86 590.96 253.27 587.01 246.88 582.49 240.52 577.71 234.38 572.41 228.49 566.65 222.67 560.69 217.12 554.33 211.89 547.64 206.76 540.81 201.96 533.71 197.54 526.4 193.26 519 189.37 511.44 185.92 503.76 182.63 496.04 179.8 488.24 177.44 480.39 175.26 472.53 173.57 464.65 172.39 456.77 171.4 448.9 170.91 441.04 170.95 433.23 171.14 425.42 171.85 417.65 173.07 409.95 174.42 402.25 176.21 394.8 178.42 387.59 180.69 380.37 183.33 373.39 186.31 366.65 189.29 359.89 192.56 353.36 196.1 347.05 199.58 340.71 203.29 334.57 207.22 328.63 211.04 322.64 215.06 316.83 219.24 311.19 223.29 305.46 227.5 299.88 231.86 294.44 236.07 288.88 240.43 283.43 244.93 278.07 249.29 272.57 253.8 267.15 258.46 261.79 262.98 256.28 267.67 250.81 272.52 245.41 277.25 239.85 282.17 234.35 287.27 228.94 292.28 223.39 297.49 217.95 302.89 212.66 308.23 207.3 313.79 202.13 319.56 197.22 325.28 192.33 331.23 187.75 337.4 183.56 343.54 179.5 349.92 175.91 356.53 172.83 363.13 170.01 369.96 167.77 377.04 166.19 384.11 164.93 391.44 164.37 399.01 164.54" stroke-dasharray="7 1" transform="rotate(24.24, 400, 400)" opacity="0.54"></path><path d="M403.84 175.2C411.12 175.69 418.48 176.85 425.9 178.63 433.33 180.67 440.83 183.28 448.37 186.38 455.93 189.66 463.54 193.37 471.18 197.45 478.83 201.59 486.51 206.04 494.18 210.72 501.85 215.38 509.51 220.23 517.1 225.22 524.67 230.11 532.16 235.11 539.5 240.19 546.79 245.13 553.9 250.13 560.77 255.19 567.51 260.09 573.97 265.05 580.07 270.07 585.97 274.93 591.45 279.88 596.44 284.91 601.16 289.8 605.33 294.81 608.9 299.93 613.42 307.54 618.54 323.4 619.05 331.72 618.81 337.27 617.89 343.04 616.29 349.01 614.45 354.94 612.02 361.1 609.04 367.48 605.98 373.85 602.49 380.45 598.65 387.28 594.93 394.1 591.01 401.16 586.95 408.46 583.24 415.76 579.61 423.13 576.13 430.55 573.12 437.96 570.31 445.43 567.72 452.92 565.65 460.41 563.78 467.92 562.12 475.42 560.92 482.9 559.87 490.36 558.91 497.76 558.32 505.12 557.75 512.39 557.13 519.53 556.76 526.6 556.25 533.49 555.56 540.15 554.98 546.7 554.14 552.96 552.99 558.89 551.11 567.3 545.33 581.6 541.33 587.26 536.77 591.92 525.33 597.78 518.49 598.95 511.13 599.18 494.5 596.76 485.34 594.4 479.08 592.77 472.55 590.9 465.77 588.85 458.97 587.09 451.94 585.3 444.71 583.56 437.46 582.29 430.03 581.18 422.43 580.27 414.82 579.96 407.24 579.9 399.69 580.06 392.14 580.77 384.63 581.62 377.18 582.58 369.73 583.94 362.34 585.26 355.01 586.49 347.68 587.92 340.42 589.12 333.25 590.01 326.06 590.93 318.96 591.42 311.96 591.46 304.96 591.36 298.06 590.72 291.28 589.53 284.51 588.11 277.87 586.11 271.38 583.54 264.92 580.72 258.63 577.33 252.53 573.42 246.48 569.26 240.65 564.62 235.06 559.54 229.55 554.26 224.31 548.59 219.38 542.58 214.54 536.43 210.04 530 205.9 523.32 201.89 516.56 198.26 509.61 195.05 502.51 192 495.36 189.37 488.1 187.2 480.77 185.21 473.41 183.67 466 182.63 458.58 181.75 451.15 181.36 443.71 181.46 436.29 181.71 428.87 182.45 421.47 183.69 414.11 185.03 406.76 186.81 399.62 188.98 392.69 191.21 385.76 193.79 379.03 196.7 372.52 199.61 365.98 202.81 359.65 206.26 353.51 209.67 347.33 213.31 341.33 217.15 335.51 220.9 329.63 224.84 323.9 228.94 318.32 232.93 312.65 237.07 307.11 241.36 301.69 245.52 296.16 249.82 290.71 254.25 285.36 258.55 279.88 263 274.46 267.58 269.11 272.04 263.63 276.65 258.2 281.41 252.84 286.06 247.35 290.88 241.93 295.87 236.62 300.76 231.2 305.84 225.91 311.1 220.78 316.3 215.61 321.69 210.65 327.28 205.94 332.82 201.28 338.57 196.94 344.53 192.97 350.45 189.15 356.6 185.77 362.97 182.89 369.32 180.25 375.9 178.17 382.71 176.7 389.51 175.54 396.55 175.03 403.83 175.2" stroke-dasharray="4 5" transform="rotate(28.28, 400, 400)" opacity="0.56"></path><path d="M408.53 185.86C415.5 186.33 422.54 187.42 429.63 189.09 436.72 191.01 443.87 193.45 451.05 196.37 458.24 199.46 465.46 202.97 472.69 206.83 479.92 210.77 487.16 215.01 494.36 219.5 501.56 223.98 508.7 228.66 515.77 233.5 522.79 238.26 529.71 243.15 536.46 248.13 543.14 253 549.62 257.94 555.84 262.95 561.94 267.82 567.74 272.76 573.18 277.76 578.43 282.62 583.27 287.56 587.64 292.57 593.56 299.96 602.21 315.09 604.8 322.89 606.29 330.72 605.66 347.11 603.6 355.7 601.84 361.46 599.55 367.41 596.77 373.56 593.93 379.69 590.71 386.03 587.16 392.57 583.74 399.1 580.11 405.85 576.34 412.81 572.87 419.76 569.46 426.77 566.15 433.8 563.26 440.83 560.51 447.89 557.94 454.95 555.82 462 553.87 469.05 552.07 476.06 550.7 483.06 549.44 489.99 548.26 496.84 547.43 503.65 546.6 510.34 545.74 516.87 545.13 523.32 544.41 529.58 543.53 535.58 542.31 544.27 538.69 559.76 536.11 566.36 529.22 576.57 514.86 585.73 508.64 586.57 501.95 586.63 486.75 584.28 478.33 582.14 472.57 580.69 466.54 579.03 460.26 577.22 453.95 575.68 447.4 574.1 440.64 572.56 433.87 571.44 426.9 570.45 419.74 569.61 412.58 569.31 405.41 569.2 398.26 569.27 391.11 569.83 383.98 570.51 376.89 571.27 369.8 572.4 362.74 573.49 355.75 574.51 348.75 575.73 341.81 576.75 334.95 577.52 328.09 578.33 321.3 578.79 314.61 578.85 307.92 578.83 301.33 578.34 294.87 577.36 288.42 576.22 282.09 574.56 275.93 572.39 269.79 570.01 263.83 567.12 258.05 563.75 252.34 560.17 246.83 556.13 241.57 551.67 236.39 547.03 231.47 542.02 226.84 536.66 222.32 531.17 218.12 525.38 214.26 519.34 210.53 513.22 207.17 506.88 204.2 500.37 201.39 493.8 198.98 487.1 197 480.3 195.18 473.47 193.81 466.56 192.89 459.6 192.13 452.64 191.83 445.64 191.99 438.63 192.3 431.62 193.07 424.6 194.3 417.6 195.64 410.6 197.38 403.77 199.51 397.13 201.69 390.49 204.21 384.02 207.03 377.73 209.87 371.42 212.98 365.27 216.34 359.3 219.66 353.29 223.21 347.43 226.95 341.72 230.62 335.95 234.47 330.31 238.49 324.8 242.4 319.2 246.47 313.72 250.67 308.33 254.76 302.84 258.99 297.44 263.35 292.11 267.59 286.68 271.96 281.3 276.46 276 280.86 270.58 285.39 265.22 290.06 259.95 294.63 254.57 299.35 249.28 304.23 244.1 309.02 238.84 313.97 233.73 319.1 228.79 324.15 223.84 329.39 219.1 334.81 214.62 340.18 210.21 345.74 206.11 351.5 202.38 357.22 198.79 363.15 195.63 369.28 192.95 375.39 190.5 381.72 188.57 388.26 187.22 394.79 186.15 401.54 185.68 408.52 185.86" stroke-dasharray="3 10" transform="rotate(32.32, 400, 400)" opacity="0.61"></path><path d="M412.9 196.52C419.56 196.96 426.26 197.99 433 199.55 439.74 201.34 446.51 203.62 453.3 206.36 460.09 209.26 466.89 212.55 473.68 216.19 480.47 219.92 487.23 223.94 493.94 228.22 500.63 232.5 507.25 236.99 513.76 241.64 520.22 246.25 526.55 250.99 532.7 255.84 538.78 260.59 544.63 265.44 550.23 270.37 555.69 275.18 560.86 280.06 565.67 285.01 570.3 289.84 574.54 294.74 578.32 299.71 583.44 307.05 590.73 322.04 592.8 329.73 593.92 337.44 592.95 353.45 590.93 361.79 589.26 367.37 587.12 373.12 584.54 379.03 581.93 384.93 578.97 391.01 575.71 397.26 572.56 403.5 569.22 409.93 565.73 416.53 562.5 423.14 559.3 429.76 556.17 436.39 553.4 443.02 550.73 449.65 548.2 456.26 546.06 462.85 544.04 469.42 542.15 475.92 540.63 482.4 539.19 488.8 537.83 495.08 536.77 501.32 535.73 507.42 534.66 513.33 533.35 521.99 530.37 537.9 528.51 545 523.81 556.87 513.74 569.63 509.16 571.96 504.16 573.51 492.37 574.05 485.61 573.16 478.47 571.86 462.67 567.96 454.07 565.64 448.24 564.31 442.16 562.94 435.87 561.58 429.56 560.6 423.05 559.72 416.34 558.95 409.63 558.66 402.9 558.51 396.16 558.5 389.42 558.93 382.69 559.45 375.98 560.02 369.27 560.94 362.59 561.82 355.95 562.62 349.32 563.64 342.74 564.48 336.22 565.1 329.71 565.8 323.26 566.19 316.91 566.24 310.57 566.26 304.33 565.87 298.2 565.05 292.1 564.12 286.13 562.74 280.31 560.9 274.53 558.9 268.91 556.44 263.49 553.53 258.12 550.47 252.96 546.97 248.04 543.07 243.2 539.03 238.61 534.61 234.31 529.87 230.11 525 226.22 519.84 222.65 514.41 219.21 508.9 216.12 503.17 213.4 497.24 210.82 491.27 208.63 485.13 206.84 478.87 205.2 472.57 203.98 466.17 203.19 459.7 202.54 453.21 202.32 446.67 202.54 440.08 202.9 433.49 203.68 426.87 204.91 420.23 206.24 413.6 207.95 407.1 210.01 400.76 212.13 394.41 214.58 388.2 217.31 382.14 220.06 376.06 223.08 370.12 226.33 364.31 229.56 358.48 233 352.77 236.64 347.18 240.21 341.54 243.96 336 247.87 330.57 251.7 325.08 255.67 319.67 259.78 314.34 263.8 308.93 267.94 303.6 272.21 298.33 276.38 292.98 280.67 287.69 285.09 282.46 289.4 277.15 293.85 271.91 298.42 266.76 302.91 261.53 307.53 256.39 312.29 251.39 316.98 246.33 321.81 241.43 326.8 236.71 331.72 231.99 336.81 227.5 342.06 223.27 347.27 219.12 352.65 215.27 358.2 211.79 363.72 208.44 369.43 205.51 375.32 203.02 381.2 200.75 387.27 198.98 393.53 197.74 399.78 196.76 406.24 196.34 412.89 196.52" stroke-dasharray="1 2" transform="rotate(36.36, 400, 400)" opacity="0.76"></path><path d="M416.82 207.18C423.14 207.6 429.49 208.55 435.85 210.01 442.22 211.67 448.6 213.8 454.97 216.34 467.72 221.88 480.4 228.84 492.81 236.87 505.13 245 517.02 253.9 528.2 263.32 539.07 272.47 548.96 282.01 557.54 291.81 565.5 301.23 571.87 310.96 576.36 320.95 580.01 330.64 581.66 340.73 581.22 351.22 580.07 361.53 577.07 372.38 572.36 383.75 569.97 389.41 567.26 395.22 564.28 401.18 561.4 407.12 558.33 413.22 555.12 419.46 552.13 425.7 549.14 431.94 546.19 438.15 543.55 444.36 540.97 450.55 538.5 456.69 534.55 468.93 530.94 480.91 527.61 492.39 525.4 503.68 523.09 514.28 520.48 523.89 518.46 533.09 515.71 541.06 512.08 547.52 508.56 553.35 503.88 557.53 498.02 559.92 492.03 561.76 484.79 561.97 476.36 560.66 467.79 559.35 458.08 557.08 447.37 554.13 441.98 552.99 436.36 551.8 430.52 550.62 424.68 549.77 418.62 548.99 412.36 548.29 406.1 548 399.81 547.82 393.49 547.75 387.19 548.06 380.87 548.43 374.56 548.84 361.96 550.55 349.43 551.97 337.12 552.8 324.88 553.99 312.89 554.01 301.35 552.67 289.94 551.02 279.04 547.73 268.87 542.86 258.94 537.46 249.85 530.52 241.81 522.25 234.18 513.58 227.72 503.78 222.65 493.12 218.09 482.26 215 470.73 213.52 458.77 212.98 452.77 212.84 446.68 213.12 440.52 213.51 434.37 214.31 428.15 215.52 421.89 216.83 415.63 218.49 409.47 220.49 403.43 222.55 397.39 224.91 391.46 227.54 385.64 232.85 373.96 239.13 362.68 246.2 351.82 253.07 340.81 260.61 330.09 268.68 319.71 276.43 309.06 284.7 298.64 293.4 288.53 301.78 278.14 310.65 268.08 319.99 258.51 329.08 248.86 338.72 239.9 348.92 231.9 358.95 224.23 369.64 217.85 380.96 213.1 386.59 211.02 392.4 209.39 398.37 208.26 404.34 207.37 410.49 207 416.81 207.18" stroke-dasharray="7 2" transform="rotate(40.400000000000006, 400, 400)" opacity="0.55"></path><path d="M420.13 217.84C432.07 218.85 444.05 221.77 455.93 226.33 467.8 231.46 479.52 237.94 490.88 245.47 502.14 253.15 512.91 261.61 522.92 270.6 532.63 279.43 541.36 288.67 548.83 298.19 555.74 307.41 561.18 316.94 564.9 326.7 567.92 336.21 569.16 346.06 568.54 356.23 567.36 366.26 564.55 376.72 560.23 387.59 555.91 398.41 550.58 409.72 544.5 421.45 539.22 433.18 533.91 444.79 528.82 456.12 524.87 467.41 521.14 478.34 517.61 488.7 515.05 498.88 512.4 508.32 509.5 516.78 507.16 524.87 504.22 531.78 500.54 537.28 497.02 542.29 492.52 545.8 487 547.74 481.42 549.27 474.72 549.4 466.95 548.22 459.08 547.13 450.16 545.2 440.29 542.67 430.36 540.99 419.54 539.25 407.93 537.63 396.33 537.43 384.53 537.49 372.75 537.72 361 539.04 349.28 540.08 337.77 540.61 326.34 541.54 315.15 541.47 304.4 540.24 293.78 538.84 283.67 536.01 274.25 531.79 265.09 527.16 256.73 521.14 249.37 513.87 242.39 506.26 236.53 497.56 231.95 487.98 227.86 478.22 225.12 467.75 223.88 456.75 223.12 445.71 223.85 434.24 226.13 422.49 228.76 410.75 232.7 399.28 237.72 388.17 242.82 377.02 248.86 366.16 255.64 355.64 262.27 344.99 269.56 334.58 277.36 324.45 284.9 314.13 292.95 304.02 301.4 294.23 309.58 284.25 318.22 274.61 327.28 265.51 336.13 256.39 345.47 247.98 355.3 240.53 364.99 233.41 375.25 227.54 386.06 223.2 396.81 219.57 408.18 217.71 420.12 217.84" stroke-dasharray="9 6" transform="rotate(44.44, 400, 400)" opacity="0.41"></path><path d="M422.72 228.5C433.93 229.43 445.1 232.11 456.08 236.31 467.05 241.04 477.79 247.04 488.11 254.04 498.32 261.23 507.98 269.19 516.87 277.71 525.47 286.14 533.11 295 539.56 304.15 545.53 313.1 550.13 322.34 553.19 331.79 555.68 341.05 556.58 350.61 555.84 360.41 554.69 370.1 552.09 380.14 548.16 390.47 544.26 400.77 539.44 411.44 533.89 422.4 529.02 433.37 524.05 444.11 519.18 454.49 515.27 464.83 511.48 474.73 507.8 484 504.98 493.13 502.04 501.48 498.89 508.87 494.71 518.93 483.67 532.38 476.23 535.45 470.97 536.77 464.74 536.88 457.56 535.86 450.31 535 442.11 533.4 433.03 531.27 423.9 529.9 413.94 528.42 403.22 526.97 392.51 526.74 381.6 526.66 370.68 526.66 359.8 527.62 348.93 528.32 338.27 528.56 327.68 529.22 317.33 529.02 307.4 527.83 297.62 526.59 288.32 524.12 279.69 520.41 271.31 516.43 263.69 511.19 257.01 504.81 250.69 498.16 245.41 490.46 241.34 481.89 237.69 473.17 235.3 463.7 234.29 453.65 233.71 443.56 234.51 432.97 236.75 422.01 239.3 411.05 243.06 400.25 247.85 389.71 252.72 379.13 258.48 368.75 264.95 358.62 271.32 348.41 278.32 338.38 285.82 328.6 293.11 318.68 300.88 308.98 309.05 299.59 316.99 290.1 325.36 280.97 334.11 272.39 342.68 263.86 351.7 256.04 361.13 249.15 370.45 242.61 380.26 237.24 390.53 233.31 400.76 230.01 411.51 228.35 422.72 228.5" stroke-dasharray="7 5" transform="rotate(48.48, 400, 400)" opacity="0.44"></path><path d="M424.49 239.16C434.94 240.02 445.27 242.47 455.35 246.3 465.41 250.63 475.17 256.13 484.45 262.6 493.63 269.26 502.23 276.69 510.05 284.67 517.61 292.63 524.26 301.04 529.77 309.76 534.9 318.33 538.77 327.2 541.27 336.27 543.31 345.2 543.95 354.38 543.15 363.75 542.05 373.04 539.68 382.6 536.13 392.36 532.65 402.1 528.31 412.1 523.28 422.28 518.82 432.46 514.19 442.33 509.56 451.77 505.74 461.17 501.94 470.08 498.19 478.33 495.16 486.45 492.01 493.81 488.67 500.23 484.16 508.98 472.98 520.51 465.81 523.11 460.81 524.29 454.98 524.43 448.32 523.6 441.63 522.97 434.08 521.69 425.74 519.92 417.37 518.84 408.23 517.6 398.4 516.31 388.56 516.06 378.54 515.86 368.5 515.66 358.5 516.3 348.52 516.68 338.73 516.65 329.02 517.03 319.54 516.68 310.46 515.49 301.53 514.33 293.06 512.11 285.23 508.83 277.64 505.37 270.76 500.79 264.77 495.17 259.1 489.35 254.4 482.56 250.8 474.92 247.59 467.15 245.53 458.64 244.74 449.51 244.33 440.34 245.18 430.62 247.36 420.47 249.82 410.32 253.4 400.22 257.93 390.28 262.55 380.32 268.01 370.47 274.15 360.83 280.22 351.12 286.89 341.56 294.05 332.22 301.05 322.8 308.51 313.58 316.34 304.7 323.99 295.76 332.05 287.21 340.44 279.21 348.69 271.31 357.34 264.1 366.34 257.8 375.25 251.84 384.58 246.97 394.28 243.43 403.95 240.47 414.04 238.99 424.49 239.16" stroke-dasharray="8 7" transform="rotate(52.52, 400, 400)" opacity="0.49"></path><path d="M425.39 249.82C435.06 250.6 444.53 252.82 453.7 256.3 462.84 260.21 471.63 265.23 479.91 271.13 488.1 277.25 495.68 284.11 502.5 291.51 509.11 298.94 514.84 306.83 519.53 315.03 523.91 323.15 527.16 331.56 529.18 340.16 530.85 348.67 531.3 357.4 530.49 366.28 529.47 375.09 527.34 384.11 524.17 393.26 521.08 402.4 517.2 411.7 512.67 421.08 508.61 430.46 504.32 439.46 499.97 448 496.27 456.49 492.52 464.45 488.76 471.75 485.6 478.95 482.31 485.39 478.83 490.96 474.07 498.57 462.78 508.52 455.84 510.78 451.07 511.87 445.59 512.07 439.4 511.45 433.2 511.04 426.26 510.07 418.62 508.64 410.95 507.81 402.6 506.79 393.63 505.65 384.65 505.39 375.52 505.08 366.37 504.73 357.26 505.09 348.17 505.17 339.27 504.9 330.45 505.01 321.85 504.5 313.64 503.27 305.57 502.13 297.95 500.09 290.93 497.13 284.12 494.08 277.98 490.04 272.67 485.08 267.63 479.98 263.49 473.99 260.36 467.19 257.57 460.3 255.82 452.67 255.24 444.42 254.98 436.14 255.87 427.28 257.97 417.94 260.32 408.6 263.71 399.23 267.97 389.95 272.32 380.65 277.45 371.41 283.23 362.32 288.96 353.19 295.28 344.18 302.05 335.38 308.71 326.53 315.81 317.89 323.26 309.58 330.57 301.28 338.26 293.36 346.25 285.99 354.13 278.75 362.36 272.18 370.88 266.48 379.33 261.09 388.14 256.73 397.24 253.58 406.31 250.94 415.72 249.63 425.39 249.82" stroke-dasharray="3 9" transform="rotate(56.56, 400, 400)" opacity="0.71"></path><path d="M425.37 260.48C434.23 261.19 442.85 263.18 451.11 266.31 459.34 269.82 467.19 274.33 474.51 279.67 481.74 285.23 488.38 291.48 494.28 298.27 500.01 305.12 504.92 312.42 508.89 320.03 512.6 327.62 515.32 335.49 516.95 343.54 518.33 351.54 518.64 359.74 517.87 368.05 516.95 376.32 515.06 384.74 512.26 393.23 509.54 401.71 506.11 410.29 502.06 418.86 498.39 427.43 494.45 435.59 490.39 443.24 486.86 450.86 483.21 457.94 479.5 464.37 476.29 470.71 472.92 476.34 469.37 481.17 464.44 487.79 453.13 496.46 446.41 498.49 439.26 499.69 421.98 498.89 411.81 497.42 404.81 496.81 397.22 495.99 389.09 494.99 380.95 494.72 372.69 494.34 364.43 493.85 356.2 493.96 348.02 493.8 340.01 493.31 332.08 493.17 324.38 492.49 317.05 491.21 309.84 490.04 303.05 488.12 296.83 485.41 290.79 482.67 285.38 479.08 280.73 474.68 276.31 470.19 272.71 464.89 270.03 458.86 267.63 452.75 266.18 445.95 265.78 438.53 265.65 431.09 266.57 423.07 268.58 414.54 270.81 406.02 273.99 397.42 277.96 388.83 282.02 380.25 286.81 371.68 292.19 363.22 297.56 354.74 303.48 346.35 309.83 338.17 316.1 329.97 322.79 321.98 329.81 314.32 336.73 306.7 344 299.47 351.53 292.77 358.98 286.22 366.74 280.3 374.74 275.2 382.69 270.39 390.92 266.52 399.38 263.74 407.82 261.41 416.51 260.28 425.37 260.48" stroke-dasharray="1 5" transform="rotate(60.599999999999994, 400, 400)" opacity="0.61"></path><path d="M424.45 271.14C432.49 271.77 440.24 273.55 447.61 276.33 454.95 279.44 461.88 283.46 468.3 288.23 474.63 293.2 480.39 298.84 485.46 304.98 490.39 311.2 494.57 317.86 497.91 324.83 501.06 331.8 503.32 339.06 504.65 346.49 505.79 353.9 506.01 361.49 505.3 369.16 504.5 376.82 502.86 384.59 500.41 392.37 498.05 400.16 495.04 407.98 491.44 415.74 488.16 423.5 484.58 430.82 480.83 437.64 477.5 444.43 474 450.68 470.4 456.32 465.52 464.35 455.29 476.78 449.71 481.03 444.06 484.42 430.8 487.55 423.02 487.53 417.69 487.54 411.83 487.1 405.48 486.26 399.12 485.85 392.26 485.2 384.94 484.33 377.62 484.06 370.21 483.62 362.83 483.03 355.47 482.94 348.18 482.57 341.07 481.89 334.03 481.53 327.21 480.7 320.74 479.35 314.38 478.14 308.42 476.29 302.98 473.78 295.35 469.66 283.61 457.79 279.81 450.09 277.78 444.69 276.61 438.64 276.37 432.01 276.36 425.36 277.28 418.15 279.19 410.45 281.29 402.74 284.23 394.92 287.9 387.08 291.65 379.25 296.07 371.4 301.04 363.64 306.02 355.87 311.5 348.19 317.39 340.7 323.23 333.22 329.47 325.94 336 318.99 342.48 312.1 349.26 305.59 356.28 299.59 363.25 293.74 370.48 288.49 377.91 283.98 385.3 279.74 392.92 276.35 400.69 273.94 408.46 271.9 416.41 270.93 424.45 271.14" stroke-dasharray="6 1" transform="rotate(64.64, 400, 400)" opacity="0.30"></path><path d="M422.65 281.8C429.85 282.36 436.74 283.92 443.24 286.36 449.72 289.08 455.78 292.61 461.34 296.82 466.84 301.21 471.79 306.2 476.11 311.67 480.32 317.23 483.86 323.21 486.66 329.49 489.32 335.79 491.21 342.37 492.3 349.11 493.26 355.86 493.43 362.76 492.8 369.74 492.13 376.72 490.72 383.77 488.62 390.82 486.6 397.86 483.99 404.91 480.83 411.86 477.92 418.8 474.7 425.31 471.28 431.33 468.18 437.34 464.89 442.83 461.45 447.75 456.69 454.77 446.6 465.63 441.13 469.39 435.62 472.45 423 475.56 415.78 475.79 408.18 475.86 390.94 474.66 381.33 473.67 374.8 473.4 368.23 472.93 361.71 472.27 355.21 472.01 348.79 471.48 342.56 470.65 333.41 469.62 316.7 465.57 309.43 462.31 302.87 458.52 292.88 447.9 289.71 441.07 288.03 436.3 287.11 430.95 287.01 425.06 287.1 419.16 288.02 412.74 289.81 405.85 291.75 398.96 294.45 391.93 297.8 384.88 301.23 377.83 305.26 370.75 309.79 363.75 314.34 356.75 319.36 349.83 324.75 343.09 330.12 336.37 335.85 329.86 341.86 323.66 347.83 317.54 354.08 311.77 360.53 306.49 366.96 301.35 373.6 296.75 380.41 292.84 387.19 289.15 394.15 286.22 401.21 284.16 408.27 282.41 415.44 281.59 422.65 281.8" stroke-dasharray="11 10" transform="rotate(68.68, 400, 400)" opacity="0.28"></path><path d="M420.03 292.46C432.77 293.72 444.17 298.33 453.75 305.45 463.14 313.21 470.46 323.04 475.22 334.08 479.62 345.29 481.4 357.48 480.39 369.93 479.3 382.4 475.86 395.12 470.21 407.4 465.35 419.67 459.3 430.28 452.64 438.86 446.95 447.35 440.39 453.75 433.1 457.84 426.35 461.96 418.38 464.06 409.29 464.2 400.29 465.05 389.91 464.63 378.39 463.01 366.87 462.86 355.37 461.71 344.57 459.6 333.94 458.41 324.26 455.61 316.22 451.1 308.61 446.81 302.91 440.4 299.74 432.01 297.17 423.58 297.25 413.13 300.42 400.97 304.09 388.8 310.35 376.13 318.44 363.7 326.65 351.35 336.52 339.32 347.39 328.42 358.19 317.82 370.01 308.65 382.27 301.78 394.51 295.69 407.29 292.34 420.03 292.46" stroke-dasharray="12 12" transform="rotate(72.72, 400, 400)" opacity="0.90"></path><path d="M416.7 303.12C427.75 304.18 437.53 308.08 445.62 314.14 453.59 320.74 459.71 329.16 463.66 338.69 467.37 348.41 468.89 359.03 468.07 369.9 467.24 380.81 464.4 391.91 459.6 402.58 455.39 413.25 450 422.42 443.95 429.83 438.61 437.19 432.43 442.79 425.61 446.46 419.21 450.23 411.82 452.34 403.59 452.78 395.45 453.81 386.25 453.67 376.22 452.35 366.2 452.14 356.34 450.9 347.19 448.72 338.16 447.28 330.04 444.46 323.39 440.22 317.05 436.22 312.39 430.47 309.91 423.09 307.88 415.7 308.13 406.61 311.03 396.04 314.33 385.46 319.87 374.47 327.01 363.69 334.27 353 343.01 342.65 352.63 333.33 362.25 324.29 372.74 316.55 383.58 310.81 394.41 305.71 405.64 302.95 416.7 303.12" stroke-dasharray="10 8" transform="rotate(76.76, 400, 400)" opacity="0.55"></path><path d="M412.77 313.77C422.16 314.65 430.37 317.87 437.1 322.9 443.74 328.36 448.81 335.39 452.06 343.39 455.17 351.58 456.48 360.57 455.85 369.81 455.27 379.1 452.98 388.56 448.99 397.64 445.42 406.72 440.73 414.53 435.37 420.86 430.5 427.18 424.85 432.05 418.64 435.36 412.73 438.79 406.04 440.85 398.72 441.53 391.49 442.67 383.47 442.74 374.91 441.69 366.34 441.45 358.06 440.18 350.47 438.04 342.97 436.45 336.32 433.68 330.94 429.76 325.8 426.04 322.09 420.93 320.22 414.5 318.68 408.1 319.05 400.3 321.64 391.3 324.54 382.29 329.33 372.98 335.49 363.89 341.77 354.88 349.32 346.21 357.63 338.47 365.97 330.98 375.05 324.61 384.39 319.96 393.74 315.8 403.37 313.57 412.77 313.77" stroke-dasharray="7 6" transform="rotate(80.80000000000001, 400, 400)" opacity="0.21"></path><path d="M408.38 324.43C416.12 325.13 422.84 327.71 428.3 331.75 433.72 336.11 437.84 341.78 440.48 348.27 443.05 354.92 444.18 362.27 443.76 369.86 443.38 377.49 441.6 385.3 438.38 392.82 435.44 400.33 431.48 406.83 426.88 412.14 422.6 417.46 417.61 421.64 412.14 424.59 406.89 427.65 401 429.62 394.68 430.45 388.43 431.61 381.62 431.84 374.5 431.03 367.37 430.78 360.59 429.56 354.48 427.54 345.78 424.6 333.46 414.13 330.69 406.42 329.56 400.97 330 394.44 332.26 386.98 334.73 379.52 338.75 371.87 343.9 364.47 349.16 357.12 355.47 350.12 362.42 343.93 369.42 337.92 377.02 332.87 384.81 329.23 392.63 325.94 400.63 324.21 408.38 324.43" stroke-dasharray="10 6" transform="rotate(84.84, 400, 400)" opacity="0.39"></path><path d="M403.69 335.09C415.94 336.45 424.77 343.46 429 353.4 433.14 363.78 432.92 376.38 427.77 388.33 423.33 400.29 415.41 409.22 406.09 414.23 397.3 419.61 386.42 421.9 375 420.37 363.57 420.23 353.72 416.53 347.34 410.25 341.32 404.46 339.28 395.16 342.87 383.29 347.03 371.42 356.01 359.32 367.07 349.75 378.29 340.7 391.42 334.97 403.69 335.09" stroke-dasharray="1 11" transform="rotate(88.88, 400, 400)" opacity="0.78"></path><path d="M398.86 345.75C407.95 346.67 414.49 351.68 417.69 358.85 420.87 366.3 420.87 375.5 417.15 384.42 413.83 393.33 407.71 400.22 400.44 404.32 393.46 408.68 384.99 410.72 376.39 409.71 367.8 409.48 360.65 406.36 356.2 401.28 351.93 396.51 350.64 389.26 353.48 380.4 356.65 371.54 363.37 362.77 371.62 356 379.99 349.54 389.77 345.54 398.86 345.75" stroke-dasharray="8 7" transform="rotate(92.92, 400, 400)" opacity="0.17"></path><path d="M394.08 356.41C406.06 357.81 411.45 369.41 406.54 381.25 402.31 393.08 390.17 400.54 378.64 399.05 367.1 398.92 360.29 390.25 364.09 378.46 368.51 366.66 382.09 356.29 394.08 356.41" stroke-dasharray="10 8" transform="rotate(96.96, 400, 400)" opacity="0.10"></path></g></svg>