<svg xmlns="http://www.w3.org/2000/svg" version="1.1" xmlns:xlink="http://www.w3.org/1999/xlink" xmlns:svgjs="http://svgjs.dev/svgjs" viewBox="0 0 800 800"><defs><linearGradient x1="50%" y1="0%" x2="50%" y2="100%" id="ccchaos-grad"><stop stop-color="hsl(206, 75%, 49%)" stop-opacity="1" offset="0%"></stop><stop stop-color="hsl(331, 90%, 56%)" stop-opacity="1" offset="100%"></stop></linearGradient></defs><g stroke-width="2" stroke="url(#ccchaos-grad)" fill="none" stroke-linecap="round"><path d="M362.36 107.76C366.43 94.99 384.66 97.46 393.43 112.02Q399.58 121.23 406.21 130.53 413.3 139.94 420.78 149.43 428.58 159.01 436.64 168.67 444.88 178.4 453.21 188.2 461.54 198.05 469.78 207.93 477.85 217.85 485.65 227.79 493.11 237.73 500.14 247.67 506.67 257.59 512.66 267.47 518.04 277.31 522.79 287.1 526.88 296.81 530.3 306.43 533.05 315.97 535.16 325.39 536.67 334.69 537.61 343.87 538.06 352.91 538.08 361.8 537.1 379.03 535.68 395.76 534.54 411.65 534.21 427.02 536.17 441.57 539.98 455.65 547.41 469.05 557.17 482.11 563.41 488.47 570.37 494.76 578.02 500.99 586.28 507.18 595.08 513.34 604.32 519.51 613.91 525.68 623.73 531.89 633.66 538.15 643.58 544.48 653.36 550.89 662.89 557.42 672.05 564.06 680.72 570.85 688.8 577.79 696.21 584.9 702.85 592.19 708.68 599.69 713.64 607.39 717.72 615.31 720.89 623.45 723.17 631.83C724.96 644.3 708.48 657.27 694.38 658.03Q676.99 662.31 659.61 669.76 642.23 679.5 624.84 690.34 607.46 701 590.08 710.18 572.69 716.79 555.31 720.02 537.93 719.49 520.54 715.26 503.16 707.85 485.78 698.14 468.4 687.3 451.01 676.63 433.63 667.42 416.25 660.77 398.86 657.49 381.48 657.97 364.1 662.14 346.71 669.52 329.33 679.21 311.95 690.04 294.57 700.72 277.18 709.96 259.8 716.65 242.42 719.98 225.03 719.56 207.65 715.43 190.27 708.09 172.89 698.43 155.5 687.6 138.12 676.91C124.02 669.23 116.13 651.1 123.3 641.93Q132.73 629.63 141.65 617.58 149.58 605.72 156.86 593.87 163.11 581.82 168.83 569.54 173.91 556.72 178.8 543.49 183.78 529.46 189.05 514.9 195.2 499.4 202.08 483.33 206.01 474.96 210.26 466.4 214.83 457.66 219.73 448.75 224.94 439.66 230.46 430.42 236.26 421.03 242.32 411.49 248.61 401.83 255.08 392.06 261.68 382.18 268.37 372.22 275.1 362.19 281.81 352.09 288.43 341.95 294.92 331.78 301.22 321.6 307.28 311.42 313.04 301.25 318.47 291.11 323.53 281.01 328.19 270.97 332.43 260.99 336.23 251.08 339.6 241.26 342.54 231.54 345.07 221.92 347.21 212.41 349 203.01 350.49 193.74 351.72 184.58 352.76 175.56 353.68 166.66 354.52 157.88 356.41 140.77 358.76 124.01 361.37 111.8 362.36 107.76" stroke-dasharray="5 5" transform="rotate(0, 400, 400)" opacity="0.81"></path><path d="M365.57 118.17C368.59 105.92 386.21 108.36 395.65 122.37Q402.11 131.23 408.96 140.18 416.17 149.22 423.66 158.36 431.38 167.57 439.26 176.87 447.22 186.23 455.18 195.65 463.07 205.13 470.8 214.65 478.3 224.2 485.5 233.78 492.32 243.37 498.7 252.96 504.6 262.54 509.96 272.09 514.74 281.62 518.93 291.09 522.51 300.51 525.49 309.86 527.86 319.13 529.65 328.31 530.91 337.39 531.68 346.35 531.82 363.84 531.09 380.92 529.77 397.25 528.63 413.11 528.73 428.17 530.08 442.75 534.22 456.57 540.32 469.96 549.96 482.72 561.7 495.18 568.74 501.25 576.37 507.26 584.53 513.22 593.15 519.14 602.14 525.04 611.4 530.93 620.84 536.84 630.34 542.77 639.81 548.75 649.13 554.8 658.2 560.92 666.9 567.14 675.16 573.47 682.86 579.92 689.94 586.51 696.33 593.26 706.41 607.37 714.06 622.05C717.24 633.18 702.92 646.91 689.26 649.45Q672.41 655.4 655.56 663.83 638.71 673.79 621.87 684.18 605.02 693.84 588.17 701.7 571.32 706.88 554.48 708.81 537.63 707.26 520.78 702.43 503.93 694.83 487.08 685.32 470.24 674.95 453.39 664.89 436.54 656.24 419.69 649.97 402.85 646.78 386 647.03 369.15 650.67 352.3 657.32 335.45 666.23 318.61 676.41 301.76 686.73 284.91 696.03 268.06 703.28 251.21 707.69 234.37 708.74 217.52 706.34 200.67 700.74 183.82 692.57 166.97 682.74 150.13 672.34C136.46 664.29 128.63 646.07 135.33 637.69Q144.04 626.27 152.21 614.94 159.37 603.56 165.92 592.05 171.55 580.17 176.72 567.97 181.4 555.13 185.98 541.83 190.76 527.71 195.88 513.07 201.92 497.52 208.68 481.44 212.54 473.1 216.7 464.58 221.16 455.91 225.94 447.08 231.01 438.11 236.36 429 241.99 419.76 247.85 410.41 253.93 400.96 260.19 391.41 266.58 381.79 273.05 372.1 279.57 362.36 286.07 352.57 292.52 342.76 298.85 332.94 305.02 323.12 310.98 313.32 316.68 303.53 322.08 293.79 327.14 284.09 331.85 274.45 336.17 264.89 340.08 255.4 343.59 245.99 346.69 236.69 349.39 227.48 351.7 218.38 353.67 209.39 355.31 200.52 357.7 183.18 359.56 166.2 361.14 149.81 362.93 133.75 364.84 122.04 365.57 118.17" stroke-dasharray="12 0" transform="rotate(4.04, 400, 400)" opacity="0.53"></path><path d="M369.43 128.58C371.59 116.84 388.61 119.24 398.54 132.72Q412.14 149.83 426.74 167.28 441.86 185.05 456.98 203.09 471.54 221.34 485.01 239.74 496.94 258.2 506.97 276.65 514.85 295.01 520.52 313.18 524.05 331.1 525.7 348.66 525.85 365.82 525.01 382.49 523.8 398.63 522.85 414.19 522.82 429.16 524.3 443.53 527.8 457.31 533.67 470.52 542.13 483.2 553.17 495.43 566.64 507.27 582.16 518.81 599.21 530.16 617.15 541.43 635.25 552.72 652.76 564.17 668.94 575.89 683.13 588 694.82 600.61 703.66 613.81C708.16 623.72 696.01 638.07 682.81 642.1Q666.53 649.3 650.26 658.27 633.98 668.09 617.71 677.74 601.43 686.25 585.16 692.73 568.89 696.52 552.61 697.23 536.34 694.8 520.06 689.46 503.79 681.77 487.51 672.51 471.24 662.64 454.96 653.17 438.69 645.07 422.42 639.17 406.14 636.08 389.87 636.11 373.59 639.26 357.32 645.21 341.04 653.35 324.77 662.84 308.49 672.71 292.22 681.94 275.94 689.59 259.67 694.88 243.39 697.25 227.12 696.47 210.84 692.62 194.57 686.09 178.29 677.55 162.02 667.88C148.82 659.89 140.97 641.89 147.18 634.09Q155.21 623.28 162.5 612.4 169.01 601.33 174.77 589.95 179.88 578.17 184.49 565.88 188.83 553.03 193.13 539.56 197.68 525.42 202.74 510.62 208.55 495.15 215.31 479.03 223.16 462.3 232.16 445.02 242.28 427.25 253.39 409.07 265.3 390.56 277.72 371.82 290.32 352.95 302.74 334.04 314.61 315.17 325.58 296.45 335.38 277.94 343.77 259.72 350.65 241.85 356.02 224.37 359.98 207.31 362.75 190.7 364.66 174.54 366.1 158.81 368.49 136.05 369.43 128.58" stroke-dasharray="7 3" transform="rotate(8.08, 400, 400)" opacity="0.55"></path><path d="M373.82 139C375.32 127.78 391.77 130.14 401.99 143.06Q415.62 159.46 429.89 176.19 444.35 193.22 458.53 210.51 471.95 228.01 484.19 245.66 494.86 263.4 503.71 281.15 510.57 298.84 515.43 316.4 518.39 333.75 519.7 350.81 519.74 367.52 518.95 383.81 517.87 399.64 517.08 414.96 517.12 429.74 518.53 443.96 521.74 457.62 527.09 470.73 534.76 483.31 544.81 495.41 557.1 507.08 571.37 518.39 587.21 529.42 604.07 540.26 621.35 551 638.4 561.75 654.54 572.62 669.19 583.72 681.8 595.14 691.99 606.98C697.68 615.82 687.64 630.63 674.94 635.79Q659.28 643.79 643.61 652.88 627.95 662.22 612.29 670.92 596.62 678.15 580.96 683.25 565.29 685.71 549.63 685.33 533.97 682.12 518.3 676.39 502.64 668.69 486.97 659.73 471.31 650.37 455.64 641.49 439.98 633.92 424.32 628.38 408.65 625.39 392.99 625.23 377.32 627.92 361.66 633.21 345.99 640.59 330.33 649.37 314.66 658.72 299 667.76 283.34 675.64 267.67 681.61 252.01 685.11 236.34 685.81 220.68 683.65 205.01 678.82 189.35 671.79 173.68 663.21C160.98 655.68 153.11 638.18 158.74 630.75Q165.98 620.33 172.49 609.68 178.27 598.72 183.38 587.36 187.95 575.51 192.14 563.13 196.16 550.16 200.25 536.58 204.65 522.37 209.6 507.54 215.32 492.11 221.96 476.1 229.64 459.57 238.39 442.58 248.19 425.19 258.92 407.48 270.39 389.53 282.36 371.42 294.53 353.25 306.57 335.08 318.16 317.01 328.97 299.11 338.75 281.44 347.27 264.07 354.4 247.03 360.11 230.38 364.44 214.13 367.56 198.29 369.7 182.88 371.2 167.87 373.13 146.13 373.82 139" stroke-dasharray="1 11" transform="rotate(12.12, 400, 400)" opacity="0.92"></path><path d="M378.61 149.41C379.65 138.72 395.56 141.03 405.85 153.39Q419.27 169.09 433 185.09 446.64 201.38 459.78 217.92 472.01 234.66 483 251.56 492.45 268.56 500.18 285.59 506.09 302.6 510.21 319.51 512.66 336.26 513.69 352.78 513.64 369.02 512.9 384.9 511.96 400.37 511.31 415.41 511.42 429.96 512.75 444 515.7 457.52 520.55 470.52 527.49 483.02 536.58 495.02 547.75 506.58 560.8 517.73 575.41 528.55 591.13 539.09 607.48 549.44 623.88 559.67 639.77 569.89 654.6 580.19 667.85 590.65 679.11 601.37C685.81 609.31 677.78 624.34 665.6 630.25Q650.59 638.61 635.57 647.45 620.55 656.03 605.53 663.59 590.52 669.49 575.5 673.22 560.48 674.45 545.46 673.08 530.45 669.22 515.43 663.21 500.41 655.58 485.39 646.97 470.38 638.13 455.36 629.82 440.34 622.77 425.32 617.57 410.31 614.69 395.29 614.36 380.27 616.62 365.25 621.28 350.24 627.92 335.22 635.97 320.2 644.75 305.18 653.49 290.17 661.44 275.15 667.9 260.13 672.34 245.12 674.35 230.1 673.77 215.08 670.64 200.06 665.25 185.05 658.04C172.87 651.3 164.94 634.57 170 627.35Q176.43 617.09 182.17 606.51 187.26 595.52 191.77 584.07 195.86 572.11 199.68 559.6 203.44 546.52 207.35 532.85 211.64 518.61 216.5 503.81 222.12 488.48 228.64 472.67 236.14 456.42 244.64 439.79 254.12 422.85 264.45 405.68 275.48 388.34 286.99 370.91 298.71 353.47 310.36 336.09 321.63 318.83 332.26 301.77 341.98 284.95 350.58 268.43 357.93 252.23 363.95 236.41 368.66 220.96 372.16 205.9 374.63 191.23 376.31 176.94 378.07 156.21 378.61 149.41" stroke-dasharray="4 2" transform="rotate(16.16, 400, 400)" opacity="0.82"></path><path d="M383.68 159.84C384.45 149.65 399.8 151.91 409.97 163.73Q422.95 178.72 435.96 193.99 448.64 209.53 460.65 225.31 471.67 241.29 481.42 257.43 489.7 273.68 496.38 289.98 501.43 306.29 504.88 322.53 506.88 338.66 507.67 354.61 507.55 370.32 506.88 385.74 506.07 400.83 505.54 415.53 505.71 429.81 506.98 443.64 509.67 457 514.06 469.87 520.31 482.27 528.51 494.2 538.6 505.67 550.46 516.72 563.84 527.4 578.39 537.75 593.7 547.83 609.32 557.71 624.74 567.45 639.48 577.15 653.08 586.88 665.12 596.73C672.63 603.93 666.45 618.95 654.82 625.24Q640.48 633.52 626.14 641.79 611.8 649.38 597.47 655.69 583.13 660.24 568.79 662.66 554.45 662.76 540.11 660.53 525.78 656.16 511.44 649.97 497.1 642.47 482.76 634.24 468.42 625.93 454.09 618.19 439.75 611.64 425.41 606.78 411.07 604.01 396.73 603.53 382.4 605.39 368.06 609.44 353.72 615.37 339.38 622.7 325.04 630.85 310.71 639.2 296.37 647.07 282.03 653.85 267.69 659 253.36 662.13 239.02 662.98 224.68 661.49 210.34 657.77 196 652.12C184.38 646.41 176.41 630.68 180.87 623.52Q186.51 613.28 191.53 602.63 195.97 591.53 199.96 579.95 203.62 567.85 207.13 555.22 210.68 542.05 214.45 528.35 218.64 514.14 223.42 499.44 228.96 484.3 235.34 468.76 242.66 452.86 250.9 436.68 260.04 420.27 269.98 403.69 280.56 387.02 291.6 370.32 302.86 353.65 314.09 337.08 325.04 320.66 335.43 304.45 345.05 288.49 353.7 272.82 361.22 257.47 367.53 242.46 372.61 227.81 376.52 213.53 379.36 199.6 381.33 186.03 383.18 166.31 383.68 159.84" stroke-dasharray="9 2" transform="rotate(20.200000000000003, 400, 400)" opacity="0.56"></path><path d="M388.87 170.27C389.55 160.59 404.34 162.8 414.19 174.06Q426.52 188.33 438.65 202.87 450.28 217.67 461.11 232.69 470.9 247.9 479.46 263.27 486.63 278.76 492.34 294.32 496.58 309.9 499.44 325.46 501.05 340.93 501.64 356.28 501.47 371.44 500.87 386.36 500.18 401.01 499.78 415.33 500.01 429.29 501.21 442.87 503.67 456.02 507.63 468.74 513.24 481.02 520.58 492.86 529.66 504.26 540.37 515.24 552.53 525.83 565.88 536.06 580.1 545.97 594.8 555.62 609.57 565.06 623.99 574.34 637.65 583.55 650.16 592.74C658.27 599.39 653.69 614.14 642.63 620.44Q629 628.29 615.37 635.69 601.74 642.12 588.12 647.13 574.49 650.34 560.86 651.54 547.23 650.64 533.6 647.69 519.97 642.92 506.34 636.66 492.72 629.36 479.09 621.54 465.46 613.77 451.83 606.58 438.2 600.51 424.57 595.98 410.94 593.32 397.31 592.71 383.69 594.21 370.06 597.69 356.43 602.92 342.8 609.53 329.17 617.03 315.54 624.89 301.91 632.56 288.28 639.47 274.65 645.15 261.02 649.18 247.4 651.28 233.77 651.29 220.14 649.21 206.51 645.2C195.45 640.72 187.44 626.17 191.33 618.97Q196.21 608.62 200.55 597.83 204.42 586.59 207.95 574.86 211.26 562.64 214.51 549.92 217.89 536.73 221.55 523.07 225.67 508.97 230.38 494.46 235.82 479.59 242.08 464.41 249.19 448.95 257.17 433.29 265.97 417.47 275.5 401.55 285.63 385.6 296.19 369.66 306.98 353.8 317.78 338.06 328.37 322.5 338.5 307.15 347.98 292.05 356.62 277.24 364.26 262.73 370.83 248.54 376.25 234.69 380.56 221.17 383.82 207.98 386.16 195.12 388.32 176.41 388.87 170.27" stroke-dasharray="7 10" transform="rotate(24.24, 400, 400)" opacity="0.58"></path><path d="M394.02 180.71C394.77 171.53 408.98 173.67 418.34 184.39Q429.86 197.95 440.98 211.76 451.47 225.81 461.1 240.06 469.7 254.51 477.1 269.1 483.23 283.82 488.04 298.63 491.57 313.47 493.91 328.31 495.18 343.11 495.6 357.81 495.41 372.38 494.88 386.76 494.32 400.92 494.02 414.82 494.3 428.42 495.44 441.68 497.68 454.59 501.24 467.11 506.25 479.24 512.8 490.96 520.91 502.28 530.52 513.19 541.49 523.72 553.64 533.88 566.7 543.7 580.39 553.21 594.35 562.46 608.24 571.49 621.7 580.34 634.38 589.08C642.84 595.34 639.63 609.59 629.17 615.58Q616.28 622.67 603.38 629.01 590.49 634.19 577.59 637.87 564.69 639.82 551.8 639.91 538.9 638.13 526 634.61 513.11 629.56 500.21 623.31 487.31 616.27 474.42 608.89 461.52 601.65 448.62 595.01 435.73 589.4 422.83 585.19 409.93 582.64 397.04 581.92 384.14 583.08 371.24 586.04 358.35 590.62 345.45 596.5 332.55 603.33 319.66 610.64 306.76 617.99 293.86 624.88 280.97 630.87 268.07 635.59 255.17 638.72 242.28 640.06 229.38 639.52 216.48 637.15C206.03 633.97 198.03 620.72 201.36 613.41Q205.54 602.9 209.27 591.96 212.65 580.57 215.78 568.72 218.8 556.43 221.85 543.71 225.1 530.57 228.68 517.03 232.73 503.14 237.38 488.92 242.73 474.41 248.84 459.67 255.75 444.74 263.45 429.67 271.9 414.51 281.02 399.3 290.69 384.11 300.76 368.98 311.07 353.95 321.43 339.07 331.62 324.37 341.46 309.89 350.75 295.66 359.33 281.7 367.06 268.03 373.82 254.66 379.56 241.59 384.26 228.84 387.95 216.39 390.71 204.22 393.35 186.52 394.02 180.71" stroke-dasharray="6 7" transform="rotate(28.28, 400, 400)" opacity="0.42"></path><path d="M398.97 191.14C399.92 182.48 413.55 184.56 422.26 194.71Q432.81 207.55 442.84 220.63 452.16 233.93 460.6 247.42 468.03 261.09 474.35 274.91 479.51 288.85 483.52 302.89 486.41 316.98 488.28 331.09 489.28 345.18 489.56 359.22 489.36 373.16 488.91 386.96 488.46 400.59 488.27 414.01 488.59 427.19 489.66 440.09 491.71 452.69 494.89 464.97 499.35 476.9 505.16 488.47 512.36 499.67 520.92 510.5 530.74 520.97 541.69 531.08 553.58 540.84 566.17 550.29 579.2 559.43 592.37 568.31 605.39 576.96 617.95 585.42C626.54 591.42 624.44 604.94 614.59 610.35Q602.44 616.45 590.29 621.59 578.15 625.47 566 627.86 553.86 628.64 541.71 627.75 529.57 625.25 517.42 621.28 505.27 616.07 493.13 609.92 480.98 603.19 468.84 596.27 456.69 589.56 444.55 583.45 432.4 578.29 420.25 574.39 408.11 571.96 395.96 571.15 383.82 572 371.67 574.48 359.52 578.42 347.38 583.61 335.23 589.74 323.09 596.46 310.94 603.38 298.79 610.1 286.65 616.23 274.5 621.41 262.36 625.34 250.21 627.8 238.06 628.64 225.92 627.82C216.06 625.96 208.13 614.07 210.95 606.64Q214.51 595.97 217.71 584.89 220.66 573.4 223.47 561.51 226.27 549.23 229.17 536.58 232.32 523.59 235.85 510.28 239.85 496.69 244.44 482.85 249.69 468.81 255.64 454.6 262.33 440.27 269.74 425.86 277.83 411.41 286.53 396.98 295.74 382.59 305.32 368.29 315.14 354.12 325.03 340.1 334.81 326.28 344.32 312.68 353.39 299.31 361.86 286.2 369.6 273.36 376.51 260.8 382.51 248.52 387.56 236.52 391.68 224.8 394.89 213.34 398.12 196.63 398.97 191.14" stroke-dasharray="5 3" transform="rotate(32.32, 400, 400)" opacity="0.98"></path><path d="M403.59 201.59C404.84 193.43 417.85 195.44 425.8 205.03Q435.28 217.16 444.17 229.51 452.3 242.05 459.57 254.77 465.89 267.67 471.21 280.7 475.49 293.86 478.78 307.12 481.11 320.44 482.59 333.8 483.34 347.17 483.53 360.51 483.34 373.79 482.96 386.97 482.61 400.02 482.52 412.92 482.88 425.62 483.89 438.1 485.75 450.34 488.59 462.31 492.53 473.98 497.66 485.35 504.01 496.39 511.58 507.11 520.3 517.49 530.08 527.54 540.78 537.25 552.24 546.65 564.23 555.75 576.53 564.56 588.9 573.11 601.07 581.42C609.57 587.28 608.31 599.9 599.07 604.51Q587.69 609.45 576.3 613.32 564.92 615.92 553.54 617.11 542.15 616.84 530.77 615.12 519.38 612.04 508 607.76 496.62 602.49 485.23 596.52 473.85 590.14 462.47 583.7 451.08 577.52 439.7 571.92 428.31 567.19 416.93 563.58 405.55 561.28 394.16 560.39 382.78 560.98 371.4 563 360.01 566.35 348.63 570.87 337.25 576.31 325.86 582.4 314.48 588.81 303.1 595.23 291.71 601.31 280.33 606.74 268.95 611.25 257.56 614.59 246.18 616.6 234.8 617.18C225.55 616.56 217.76 606.05 220.12 598.52Q223.13 587.73 225.89 576.57 228.5 565.07 231.07 553.22 233.69 541.05 236.49 528.59 239.58 515.86 243.06 502.88 247.02 489.7 251.54 476.35 256.68 462.85 262.48 449.26 268.93 435.6 276.05 421.91 283.77 408.24 292.04 394.61 300.78 381.06 309.87 367.62 319.18 354.32 328.59 341.19 337.94 328.25 347.09 315.52 355.88 303.02 364.19 290.76 371.89 278.75 378.88 266.99 385.09 255.49 390.45 244.24 394.95 233.23 398.61 222.47 402.53 206.76 403.59 201.59" stroke-dasharray="11 6" transform="rotate(36.36, 400, 400)" opacity="0.66"></path><path d="M407.73 212.04C409.35 204.38 421.7 206.3 428.81 215.34Q437.16 226.76 444.88 238.36 451.86 250.15 458.01 262.11 463.3 274.23 467.69 286.48 471.19 298.85 473.83 311.32 475.68 323.86 476.83 336.46 477.39 349.08 477.51 361.69 477.33 374.27 477.03 386.8 476.78 399.23 476.77 411.55 477.16 423.73 478.12 435.73 479.8 447.55 482.32 459.14 485.8 470.5 490.29 481.6 495.85 492.42 502.48 502.97 510.16 513.22 518.81 523.18 528.34 532.83 538.63 542.18 549.52 551.24 560.83 560.02 572.37 568.53 583.94 576.78C592.17 582.57 591.48 594.15 582.87 597.84Q572.25 601.53 561.64 604.13 551.02 605.52 540.4 605.63 529.79 604.46 519.17 602.06 508.55 598.55 497.93 594.08 487.32 588.86 476.7 583.13 466.08 577.15 455.47 571.19 444.85 565.53 434.23 560.43 423.61 556.12 413 552.79 402.38 550.61 391.76 549.67 381.15 550.01 370.53 551.62 359.91 554.43 349.3 558.3 338.68 563.06 328.06 568.49 317.44 574.34 306.83 580.34 296.21 586.22 285.59 591.72 274.98 596.57 264.36 600.55 253.74 603.48 243.13 605.24C234.52 605.73 226.92 596.56 228.91 588.96Q231.47 578.14 233.87 567.01 236.22 555.6 238.6 543.91 241.12 531.97 243.85 519.81 246.9 507.45 250.35 494.92 254.27 482.25 258.71 469.47 263.73 456.61 269.35 443.7 275.57 430.78 282.37 417.88 289.71 405.02 297.56 392.23 305.81 379.55 314.4 366.99 323.2 354.58 332.11 342.34 341.01 330.28 349.76 318.43 358.24 306.78 366.33 295.36 373.93 284.17 380.94 273.21 387.28 262.47 392.89 251.97 397.74 241.68 401.81 231.6 406.43 216.88 407.73 212.04" stroke-dasharray="7 9" transform="rotate(40.400000000000006, 400, 400)" opacity="0.92"></path><path d="M411.28 222.49C413.29 215.33 424.97 217.18 431.17 225.65Q438.38 236.35 444.94 247.22 450.81 258.26 455.92 269.45 460.26 280.78 463.82 292.24 466.62 303.82 468.71 315.5 470.15 327.25 471.02 339.07 471.43 350.92 471.5 362.79 471.35 374.65 471.12 386.48 470.97 398.25 471.03 409.95 471.44 421.54 472.34 433.01 473.86 444.34 476.1 455.49 479.14 466.46 483.06 477.23 487.89 487.77 493.65 498.08 500.34 508.14 507.91 517.94 516.3 527.49 525.42 536.76 535.17 545.77 545.41 554.51 555.99 562.99 566.76 571.22C574.53 576.99 574.19 587.44 566.2 590.12Q556.35 592.56 546.5 593.96 536.65 594.25 526.8 593.42 516.95 591.52 507.1 588.6 497.25 584.81 487.39 580.27 477.54 575.19 467.69 569.75 457.84 564.19 447.99 558.73 438.14 553.58 428.29 548.95 418.44 545.04 408.59 541.99 398.74 539.93 388.89 538.95 379.04 539.08 369.19 540.32 359.33 542.62 349.48 545.88 339.63 549.97 329.78 554.74 319.93 559.98 310.08 565.49 300.23 571.04 290.38 576.41 280.53 581.38 270.67 585.76 260.82 589.37 250.97 592.05C242.98 593.48 235.69 585.56 237.35 577.99Q239.55 567.25 241.7 556.27 243.86 545.07 246.12 533.67 248.56 522.09 251.26 510.34 254.29 498.47 257.71 486.49 261.58 474.43 265.95 462.31 270.83 450.17 276.26 438.02 282.22 425.89 288.7 413.82 295.66 401.81 303.06 389.9 310.84 378.1 318.91 366.43 327.2 354.92 335.6 343.57 344.01 332.39 352.34 321.41 360.47 310.62 368.3 300.03 375.73 289.65 382.69 279.47 389.09 269.49 394.87 259.72 400 250.14 404.44 240.75 409.74 227.01 411.28 222.49" stroke-dasharray="3 6" transform="rotate(44.44, 400, 400)" opacity="0.76"></path><path d="M414.12 232.95C416.53 226.29 427.51 228.05 432.79 235.96Q438.86 245.94 444.32 256.08 449.14 266.36 453.3 276.78 456.78 287.34 459.61 298.01 461.81 308.79 463.43 319.67 464.52 330.62 465.18 341.64 465.47 352.71 465.5 363.81 465.39 374.92 465.24 386.02 465.16 397.1 465.28 408.13 465.72 419.09 466.57 429.97 467.93 440.75 469.9 451.4 472.55 461.91 475.94 472.26 480.1 482.45 485.06 492.44 490.83 502.24 497.38 511.82 504.67 521.19 512.66 530.33 521.25 539.24 530.37 547.91 539.9 556.34 549.72 564.54C556.9 570.3 556.72 579.58 549.34 581.26Q540.25 582.52 531.15 582.82 522.06 582.16 512.97 580.56 503.88 578.09 494.78 574.82 485.69 570.87 476.6 566.38 467.51 561.5 458.41 556.42 449.32 551.3 440.23 546.33 431.14 541.68 422.04 537.51 412.95 533.98 403.86 531.2 394.77 529.27 385.68 528.26 376.58 528.21 367.49 529.12 358.4 530.95 349.31 533.64 340.22 537.1 331.12 541.21 322.03 545.81 312.94 550.76 303.85 555.87 294.75 560.97 285.66 565.87 276.57 570.41 267.48 574.42 258.39 577.77C251.01 579.92 244.1 573.11 245.53 565.66Q247.47 555.15 249.43 544.46 251.48 533.61 253.67 522.62 256.08 511.52 258.76 500.32 261.78 489.04 265.17 477.71 268.99 466.34 273.26 454.97 277.99 443.61 283.21 432.27 288.9 420.99 295.04 409.78 301.61 398.66 308.57 387.64 315.86 376.74 323.41 365.98 331.17 355.36 339.05 344.9 346.97 334.6 354.84 324.48 362.57 314.53 370.08 304.77 377.29 295.18 384.13 285.78 390.51 276.56 396.39 267.51 401.72 258.63 406.46 249.92 412.36 237.16 414.12 232.95" stroke-dasharray="9 3" transform="rotate(48.48, 400, 400)" opacity="0.80"></path><path d="M416.19 243.41C418.95 237.25 429.2 238.91 433.59 246.26Q438.57 255.53 443 264.93 446.87 274.46 450.16 284.12 452.9 293.89 455.09 303.77 456.78 313.75 458 323.83 458.82 333.98 459.3 344.2 459.51 354.47 459.53 364.78 459.45 375.12 459.37 385.47 459.37 395.81 459.55 406.13 459.99 416.42 460.78 426.65 462.01 436.82 463.74 446.9 466.03 456.88 468.93 466.75 472.49 476.49 476.72 486.09 481.64 495.54 487.24 504.82 493.49 513.93 500.38 522.86 507.84 531.59 515.82 540.13 524.23 548.46 533.01 556.59C539.49 562.31 539.28 570.42 532.51 571.16Q515.82 570.71 499.13 567.09 482.44 560.74 465.75 552.41 449.06 543.13 432.37 533.98 415.69 526.09 399 520.4 382.31 517.58 365.62 517.99 348.93 521.57 332.24 527.89 315.55 536.19 298.86 545.48 282.17 554.63 265.48 562.54C258.71 565.18 252.26 559.36 253.52 552.14Q255.3 541.99 257.15 531.73 259.13 521.37 261.3 510.93 263.7 500.42 266.38 489.87 269.38 479.29 272.74 468.7 276.49 458.11 280.64 447.54 285.21 437.02 290.2 426.55 295.6 416.15 301.4 405.83 307.57 395.61 314.07 385.5 320.86 375.51 327.9 365.65 335.12 355.92 342.47 346.34 349.87 336.92 357.26 327.64 364.56 318.53 371.71 309.57 378.63 300.77 385.27 292.14 391.56 283.65 397.45 275.32 402.89 267.14 407.84 259.1 414.24 247.3 416.19 243.41" stroke-dasharray="4 5" transform="rotate(52.52, 400, 400)" opacity="0.81"></path><path d="M417.45 253.89C420.5 248.22 429.97 249.78 433.5 256.57Q440.98 273.78 446.54 291.45 450.29 309.53 452.46 327.98 453.4 346.74 453.58 365.71 453.53 384.83 453.82 403.98 455.01 423.09 457.61 442.04 462.05 460.74 468.63 479.09 477.49 496.99 488.62 514.37 501.84 531.15 516.8 547.29C522.52 552.93 522.15 559.9 515.98 559.82Q500.75 557.71 485.52 553.09 470.3 546.44 455.07 538.43 439.84 529.9 424.62 521.7 409.39 514.7 394.16 509.6 378.94 506.92 363.71 506.95 348.48 509.68 333.26 514.82 318.03 521.86 302.8 530.07 287.57 538.61 272.35 546.59C266.17 549.48 260.26 544.51 261.42 537.62Q264.9 518.29 269.04 498.77 274.13 479.16 280.43 459.58 288.11 440.13 297.23 420.91 307.77 402.01 319.56 383.51 332.37 365.46 345.85 347.92 359.6 330.91 373.18 314.45 386.14 298.55 398.06 283.17 408.58 268.3 417.45 253.89 417.45 253.89 417.45 253.89" stroke-dasharray="12 9" transform="rotate(56.56, 400, 400)" opacity="0.78"></path><path d="M417.84 264.36C421.11 259.19 429.8 260.65 432.55 266.86Q438.29 282.62 442.49 298.78 445.26 315.3 446.83 332.14 447.51 349.26 447.66 366.61 447.71 384.12 448.09 401.72 449.22 419.33 451.5 436.88 455.26 454.29 460.75 471.49 468.12 488.38 477.39 504.91 488.49 521.01 501.22 536.62C506.15 542.11 505.55 548.03 499.95 547.27Q486.15 543.91 472.35 538.66 458.55 531.99 444.75 524.47 430.95 516.75 417.15 509.5 403.35 503.34 389.55 498.8 375.75 496.28 361.95 496 348.15 497.97 334.35 502.03 320.54 507.83 306.74 514.87 292.94 522.53 279.14 530.16C273.55 533.1 268.23 528.81 269.34 522.36Q272.79 504.37 276.95 486.34 282.05 468.35 288.25 450.49 295.66 432.83 304.31 415.43 314.15 398.37 325.06 381.69 336.84 365.43 349.22 349.62 361.89 334.28 374.52 319.41 386.75 305 398.24 291.04 413.26 270.94 417.84 264.36" stroke-dasharray="8 5" transform="rotate(60.599999999999994, 400, 400)" opacity="0.69"></path><path d="M417.39 274.84C420.77 270.15 428.66 271.51 430.73 277.15Q434.98 291.47 438.03 306.11 440.01 321.07 441.12 336.31 441.62 351.8 441.77 367.51 441.92 383.38 442.36 399.38 443.44 415.43 445.42 431.49 448.58 447.5 453.1 463.39 459.13 479.11 466.71 494.59 475.84 509.79 486.42 524.65C490.54 529.91 489.67 534.88 484.63 533.62Q472.22 529.41 459.8 523.88 447.39 517.45 434.97 510.55 422.56 503.69 410.14 497.35 397.73 492 385.31 488 372.89 485.65 360.48 485.12 348.06 486.43 335.65 489.51 323.23 494.13 310.82 499.95 298.4 506.57 285.98 513.5C280.95 516.3 276.28 512.56 277.38 506.64Q280.87 490.21 285.08 473.84 290.16 457.6 296.22 441.55 303.3 425.73 311.43 410.19 320.55 394.96 330.55 380.09 341.29 365.59 352.55 351.48 364.12 337.77 375.73 324.45 387.12 311.51 398.02 298.95 412.78 280.79 417.39 274.84" stroke-dasharray="9 5" transform="rotate(64.64, 400, 400)" opacity="0.75"></path><path d="M416.12 285.33C419.51 281.12 426.6 282.37 428.08 287.45Q431.1 300.32 433.23 313.46 434.6 326.86 435.37 340.5 435.74 354.37 435.92 368.43 436.14 382.65 436.64 397 437.64 411.44 439.36 425.93 441.98 440.43 445.65 454.9 450.49 469.28 456.57 483.54 463.9 497.63 472.45 511.51C475.81 516.44 474.67 520.59 470.17 519Q459.1 514.36 448.03 508.88 436.96 502.88 425.89 496.72 414.82 490.74 403.75 485.29 392.68 480.69 381.61 477.21 370.54 475.04 359.47 474.32 348.4 475.08 337.33 477.29 326.26 480.8 315.19 485.43 304.12 490.89 293.05 496.88C288.55 499.39 284.54 496.07 285.67 490.76Q289.23 476.05 293.47 461.48 298.49 447.08 304.34 432.88 311.04 418.92 318.6 405.23 326.96 391.83 336.04 378.74 345.72 365.96 355.87 353.51 366.3 341.38 376.84 329.58 387.29 318.09 397.44 306.9 411.62 290.66 416.12 285.33" stroke-dasharray="5 9" transform="rotate(68.68, 400, 400)" opacity="0.96"></path><path d="M414.11 295.82C417.41 292.09 423.65 293.22 424.67 297.74Q426.71 309.16 428.14 320.8 429.06 332.65 429.59 344.71 429.89 356.95 430.1 369.37 430.39 381.93 430.92 394.62 431.85 407.41 433.31 420.28 435.46 433.19 438.39 446.12 442.21 459.03 446.96 471.9 452.7 484.7 459.4 497.38C462.06 501.92 460.67 505.34 456.71 503.61Q446.94 498.91 437.18 493.74 427.41 488.35 417.65 482.99 407.88 477.89 398.12 473.29 388.35 469.4 378.58 466.41 368.82 464.44 359.05 463.59 349.28 463.9 339.52 465.35 329.75 467.88 319.99 471.36 310.22 475.65 300.45 480.55C296.5 482.65 293.13 479.7 294.31 475.02Q297.93 462.15 302.16 449.44 307.05 436.91 312.62 424.59 318.88 412.49 325.82 400.62 333.39 389.01 341.53 377.64 350.16 366.54 359.17 355.7 368.45 345.12 377.86 334.79 387.28 324.71 396.55 314.87 409.82 300.53 414.11 295.82" stroke-dasharray="10 5" transform="rotate(72.72, 400, 400)" opacity="0.44"></path><path d="M411.43 306.33C414.52 303.08 419.95 304.08 420.6 308.04Q421.91 318.01 422.83 328.16 423.43 338.48 423.82 348.95 424.08 359.59 424.33 370.36 424.67 381.26 425.21 392.28 426.05 403.4 427.29 414.6 429.02 425.87 431.32 437.18 434.25 448.52 437.88 459.87 442.22 471.2 447.31 482.5C449.32 486.56 447.76 489.38 444.31 487.67Q435.81 483.23 427.32 478.59 418.82 473.93 410.32 469.4 401.83 465.16 393.33 461.37 384.84 458.15 376.34 455.61 359.35 453.38 342.35 453.72 333.86 455.39 325.36 457.84 316.86 460.99 308.37 464.73C304.91 466.39 302.2 463.71 303.39 459.72Q307.03 448.74 311.18 437.91 315.86 427.26 321.07 416.79 326.82 406.5 333.08 396.41 339.83 386.52 347.01 376.84 354.57 367.36 362.45 358.08 370.56 349 378.81 340.11 387.13 331.41 395.4 322.88 407.48 310.43 411.43 306.33" stroke-dasharray="1 4" transform="rotate(76.76, 400, 400)" opacity="0.74"></path><path d="M408.21 316.83C410.99 314.06 415.6 314.94 416 318.32Q417.37 335.52 418.07 353.23 418.61 371.41 419.5 390.02 421.28 408.97 424.4 428.21 429.27 447.63 436.14 467.13C437.6 470.64 435.96 472.96 433.02 471.4Q418.5 463.53 403.99 455.98 389.47 449.52 374.96 444.81 360.44 442.35 345.93 442.37 331.41 444.89 316.9 449.64C313.95 450.83 311.84 448.42 313.03 445.11Q320.56 427.04 329.7 409.54 340.39 392.63 352.49 376.33 365.72 360.63 379.72 345.51 394.04 330.93 408.21 316.83 408.21 316.83 408.21 316.83" stroke-dasharray="3 1" transform="rotate(80.80000000000001, 400, 400)" opacity="0.70"></path><path d="M404.57 327.34C406.96 325.04 410.77 325.78 410.99 328.61Q411.83 342.9 412.37 357.55 412.93 372.55 413.8 387.87 415.27 403.47 417.63 419.32 421.11 435.37 425.89 451.56C426.89 454.48 425.26 456.37 422.81 455.05Q410.73 448.65 398.65 442.74 386.57 437.74 374.49 434.01 362.41 431.82 350.33 431.32 338.25 432.55 326.17 435.42C323.72 436.19 322.15 434.04 323.29 431.4Q330.33 416.95 338.5 402.92 347.75 389.32 357.97 376.14 368.98 363.38 380.59 351.01 398.56 333.18 404.57 327.34" stroke-dasharray="2 1" transform="rotate(84.84, 400, 400)" opacity="0.75"></path><path d="M400.64 337.87C402.59 336.03 405.59 336.64 405.73 338.9Q406.27 350.29 406.74 361.93 407.29 373.79 408.09 385.88 409.27 398.16 410.99 410.64 413.35 423.28 416.48 436.07C417.13 438.39 415.62 439.9 413.67 438.89Q403.99 434.07 394.31 429.72 384.64 426.05 374.96 423.22 365.28 421.36 355.6 420.56 345.93 420.85 336.25 422.22C334.29 422.62 333.19 420.78 334.24 418.76Q340.51 407.73 347.5 396.97 355.16 386.49 363.44 376.28 372.24 366.33 381.46 356.62 395.81 342.5 400.64 337.87" stroke-dasharray="11 6" transform="rotate(88.88, 400, 400)" opacity="0.66"></path><path d="M396.6 348.39C398.06 347.03 400.28 347.49 400.37 349.18Q401.2 366.35 402.39 384.06 404.45 402.27 407.83 420.94C408.21 422.64 406.95 423.8 405.47 423.11Q390.91 416.92 376.34 412.42 361.78 410.06 347.21 410.08C345.73 410.22 345.02 408.73 345.92 407.29Q356.68 391.72 368.91 376.74 382.35 362.32 396.6 348.39 396.6 348.39 396.6 348.39" stroke-dasharray="10 7" transform="rotate(92.92, 400, 400)" opacity="0.44"></path><path d="M392.59 358.94C393.55 358.02 395.02 358.33 395.08 359.47Q395.77 370.84 396.7 382.46 398.01 394.33 399.84 406.42C400.03 407.52 399.11 408.34 398.12 407.94Q388.35 404.37 378.59 401.62 368.82 399.82 359.05 399.04C358.06 399.02 357.67 397.95 358.33 397.04Q366.04 387.16 374.38 377.52 387.93 363.53 392.59 358.94" stroke-dasharray="8 11" transform="rotate(96.96, 400, 400)" opacity="0.77"></path></g></svg>