<svg xmlns="http://www.w3.org/2000/svg" version="1.1" xmlns:xlink="http://www.w3.org/1999/xlink" xmlns:svgjs="http://svgjs.dev/svgjs" viewBox="0 0 800 800"><defs><linearGradient x1="50%" y1="0%" x2="50%" y2="100%" id="nnneon-grad"><stop stop-color="hsl(157, 100%, 54%)" stop-opacity="1" offset="0%"></stop><stop stop-color="hsl(331, 87%, 61%)" stop-opacity="1" offset="100%"></stop></linearGradient><filter id="nnneon-filter" x="-100%" y="-100%" width="400%" height="400%" filterUnits="objectBoundingBox" primitiveUnits="userSpaceOnUse" color-interpolation-filters="sRGB">
	<feGaussianBlur stdDeviation="14 8" x="0%" y="0%" width="100%" height="100%" in="SourceGraphic" edgeMode="none" result="blur"></feGaussianBlur></filter><filter id="nnneon-filter2" x="-100%" y="-100%" width="400%" height="400%" filterUnits="objectBoundingBox" primitiveUnits="userSpaceOnUse" color-interpolation-filters="sRGB">
	<feGaussianBlur stdDeviation="10 17" x="0%" y="0%" width="100%" height="100%" in="SourceGraphic" edgeMode="none" result="blur"></feGaussianBlur></filter></defs><g stroke-width="20" stroke="url(#nnneon-grad)" fill="none"><path d="M384.4354708968261 192.63739802395793C390.8120117988233 179.75233988321213 409.1879801607332 179.75233988321213 415.5645210627304 192.63739802395793L613.1765104485057 591.9595893577942C618.8879600745047 603.50057270057 610.4900973833123 617.0264106868597 597.6137218963001 617.0264106868597H202.38627006325623C189.50989457624405 617.0264106868597 181.1120318850518 603.50057270057 186.8234815110509 591.9595893577942L384.4354708968261 192.63739802395793Z " filter="url(#nnneon-filter)"></path><path d="M396.4354708968261 192.63739802395793C402.8120117988233 179.75233988321213 421.1879801607332 179.75233988321213 427.5645210627304 192.63739802395793L625.1765104485057 591.9595893577942C630.8879600745047 603.50057270057 622.4900973833123 617.0264106868597 609.6137218963001 617.0264106868597H214.38627006325623C201.50989457624405 617.0264106868597 193.1120318850518 603.50057270057 198.8234815110509 591.9595893577942L396.4354708968261 192.63739802395793Z " filter="url(#nnneon-filter2)" opacity="0.21"></path><path d="M372.4354708968261 192.63739802395793C378.8120117988233 179.75233988321213 397.1879801607332 179.75233988321213 403.5645210627304 192.63739802395793L601.1765104485057 591.9595893577942C606.8879600745047 603.50057270057 598.4900973833123 617.0264106868597 585.6137218963001 617.0264106868597H190.38627006325623C177.50989457624405 617.0264106868597 169.1120318850518 603.50057270057 174.8234815110509 591.9595893577942L372.4354708968261 192.63739802395793Z " filter="url(#nnneon-filter2)" opacity="0.21"></path><path d="M384.4354708968261 192.63739802395793C390.8120117988233 179.75233988321213 409.1879801607332 179.75233988321213 415.5645210627304 192.63739802395793L613.1765104485057 591.9595893577942C618.8879600745047 603.50057270057 610.4900973833123 617.0264106868597 597.6137218963001 617.0264106868597H202.38627006325623C189.50989457624405 617.0264106868597 181.1120318850518 603.50057270057 186.8234815110509 591.9595893577942L384.4354708968261 192.63739802395793Z "></path></g></svg>